<?xml version="1.0" encoding="UTF-8"?>
<svg xmlns="http://www.w3.org/2000/svg" version="1.1" viewBox="0 0 1080 1080">
  <defs>
    <style>
      .cls-1 {
        fill: #6842e3;
      }

      .cls-1, .cls-2, .cls-3, .cls-4 {
        fill-rule: evenodd;
      }

      .cls-5 {
        fill: #2c2e5f;
      }

      .cls-2, .cls-6 {
        fill: #1e1d54;
      }

      .cls-3 {
        fill: #9071da;
      }

      .cls-4 {
        fill: #28e7c5;
      }
    </style>
  </defs>
  <!-- Generator: Adobe Illustrator 28.6.0, SVG Export Plug-In . SVG Version: 1.2.0 Build 709)  -->
  <g>
    <g id="Capa_1">
      <g>
        <path class="cls-2" d="M2800.16-727.06v120.82c-66.46,0-120.33-54.1-120.33-120.82s53.87-120.82,120.33-120.82v120.82Z"/>
        <path class="cls-2" d="M2679.84-727.06v120.82c-66.46,0-120.33-54.1-120.33-120.82s53.87-120.82,120.33-120.82v120.82Z"/>
        <path class="cls-2" d="M2920.49-727.07h-120.33c0-66.73,53.87-120.82,120.33-120.82v120.82Z"/>
        <path class="cls-2" d="M2679.84-485.42v-120.82c66.46,0,120.33,54.1,120.33,120.82s-53.87,120.82-120.33,120.82v-120.82Z"/>
        <path class="cls-2" d="M2800.16-485.42v-120.82c66.46,0,120.33,54.1,120.33,120.82s-53.87,120.82-120.33,120.82v-120.82Z"/>
        <path class="cls-2" d="M2559.51-485.41h120.33c0,66.73-53.87,120.82-120.33,120.82v-120.82Z"/>
      </g>
      <g>
        <g>
          <path class="cls-2" d="M422.54-614.38c-4.43-2.25-9.17-3.95-14.25-5.11-5.08-1.16-9.86-2.17-14.36-3.05-4.5-.87-8.16-2.07-10.99-3.59-2.83-1.52-4.24-3.73-4.24-6.64,0-1.88.58-3.51,1.74-4.89,1.16-1.38,2.75-2.46,4.79-3.26,2.03-.8,4.28-1.2,6.74-1.2,4.35,0,8.37.95,12.07,2.83,3.7,1.89,6.34,4.79,7.94,8.7l22.84-12.83c-2.18-4.2-5.19-8.05-9.03-11.53-3.84-3.48-8.59-6.31-14.25-8.48-5.66-2.18-12.4-3.26-20.23-3.26-8.85,0-16.53,1.52-23.06,4.57-6.53,3.05-11.57,7.18-15.12,12.4-3.56,5.22-5.33,11.09-5.33,17.62,0,6.96,1.41,12.51,4.24,16.64,2.83,4.13,6.49,7.29,10.99,9.46,4.49,2.18,9.28,3.84,14.36,5,5.07,1.16,9.82,2.18,14.25,3.05,4.42.87,8.08,2,10.99,3.37,2.9,1.38,4.35,3.52,4.35,6.42,0,2.17-.69,4.02-2.07,5.55-1.38,1.52-3.26,2.68-5.66,3.48-2.39.8-5.26,1.2-8.59,1.2-5.37,0-9.86-.98-13.49-2.94-3.63-1.96-6.67-5.11-9.14-9.46l-22.84,12.84c4.49,7.98,10.62,14.03,18.38,18.16,7.76,4.13,17.29,6.2,28.61,6.2,8.12,0,15.66-1.49,22.62-4.46,6.96-2.97,12.54-7.1,16.75-12.4,4.2-5.29,6.31-11.56,6.31-18.82,0-6.67-1.45-12.04-4.35-16.1-2.9-4.06-6.56-7.21-10.99-9.46Z"/>
          <rect class="cls-6" x="447.3" y="-663.87" width="30.89" height="107.68"/>
          <path class="cls-2" d="M575.17-659.19c-8.34-5.15-18.82-7.72-31.44-7.72s-23.06,2.58-31.33,7.72c-8.27,5.15-14.47,12.04-18.6,20.67-4.13,8.63-6.2,18.17-6.2,28.61v53.73h30.89v-50.03c0-5.66.87-10.77,2.61-15.34,1.74-4.57,4.49-8.27,8.27-11.09,3.77-2.83,8.56-4.24,14.36-4.24s10.77,1.41,14.47,4.24c3.7,2.83,6.49,6.56,8.37,11.2,1.88,4.64,2.83,9.72,2.83,15.23v50.03h30.89v-53.73c0-10.58-2.1-20.16-6.31-28.72-4.21-8.55-10.48-15.41-18.82-20.56Z"/>
          <path class="cls-2" d="M692.06-596.22c-2.39,4.21-5.66,7.58-9.79,10.12-4.13,2.54-8.89,3.81-14.25,3.81s-9.9-1.27-14.03-3.81c-4.13-2.54-7.4-5.91-9.79-10.12-2.39-4.2-3.59-8.84-3.59-13.92s1.2-9.71,3.59-13.92c2.39-4.2,5.66-7.58,9.79-10.12,4.13-2.54,8.81-3.81,14.03-3.81s10.12,1.27,14.25,3.81c4.13,2.54,7.4,5.91,9.79,10.12,2.39,4.21,3.59,8.85,3.59,13.92s-1.2,9.72-3.59,13.92h0ZM697.94-659.41c-8.78-5.15-18.75-7.72-29.91-7.72s-20.74,2.58-29.58,7.72c-8.85,5.15-15.85,12-20.99,20.56-5.15,8.56-7.72,18.06-7.72,28.5s2.57,19.98,7.72,28.61c5.15,8.63,12.11,15.52,20.88,20.67,8.77,5.15,18.67,7.72,29.69,7.72s20.96-2.58,29.8-7.72c8.84-5.15,15.84-12.04,20.99-20.67,5.15-8.63,7.72-18.17,7.72-28.61s-2.58-19.76-7.72-28.39c-5.15-8.63-12.11-15.52-20.88-20.67Z"/>
          <path class="cls-2" d="M782.05-584.14c0-.1.07-.12.2-.09-.02.06-.08.09-.2.09h0ZM810.33-665.28l-28.17,80.21-28.17-80.21h-32.85l32.85,89.84c2.46,6.96,6.13,12.18,10.99,15.66,4.86,3.48,10.55,5.22,17.08,5.22s12.32-1.74,16.97-5.22c4.64-3.48,8.27-8.7,10.88-15.66l33.28-89.84h-32.85Z"/>
          <path class="cls-2" d="M925.33-597.63c-2.39,4.21-5.66,7.58-9.79,10.12-4.13,2.54-8.89,3.81-14.25,3.81s-9.9-1.27-14.03-3.81c-4.13-2.54-7.4-5.91-9.79-10.12-2.39-4.2-3.59-8.84-3.59-13.92s1.2-9.71,3.59-13.92c2.39-4.2,5.66-7.58,9.79-10.12,4.13-2.54,8.81-3.81,14.03-3.81s10.11,1.27,14.25,3.81c4.13,2.54,7.4,5.91,9.79,10.12,2.39,4.21,3.59,8.85,3.59,13.92s-1.2,9.72-3.59,13.92h0ZM952.19-640.81c-5.08-8.48-12.04-15.23-20.88-20.23-8.85-5-18.86-7.51-30.02-7.51s-20.92,2.58-29.7,7.72c-8.78,5.15-15.74,12.04-20.88,20.67-5.15,8.63-7.72,18.09-7.72,28.39s2.28,19.98,6.85,28.61c4.57,8.63,10.84,15.52,18.82,20.67,7.97,5.15,17.19,7.72,27.63,7.72,8.99,0,16.68-1.92,23.06-5.77,4.34-2.61,8.03-5.92,11.09-9.87v12.81h29.37v-54.17c0-10.88-2.54-20.56-7.61-29.04Z"/>
        </g>
        <g>
          <path class="cls-2" d="M233.5-667.14v56.89c-31.29,0-56.65-25.47-56.65-56.89s25.36-56.89,56.65-56.89v56.89Z"/>
          <path class="cls-2" d="M176.85-667.14v56.89c-31.29,0-56.65-25.47-56.65-56.89s25.36-56.89,56.65-56.89v56.89Z"/>
          <path class="cls-2" d="M290.15-667.14h-56.65c0-31.42,25.36-56.89,56.65-56.89v56.89Z"/>
          <path class="cls-2" d="M176.85-553.36v-56.89c31.29,0,56.65,25.47,56.65,56.89s-25.36,56.89-56.65,56.89v-56.89Z"/>
          <path class="cls-2" d="M233.5-553.36v-56.89c31.29,0,56.65,25.47,56.65,56.89s-25.36,56.89-56.65,56.89v-56.89Z"/>
          <path class="cls-2" d="M120.19-553.36h56.65c0,31.42-25.36,56.89-56.65,56.89v-56.89Z"/>
        </g>
        <g>
          <g>
            <path class="cls-5" d="M380.83-496.37c-2.09,0-4.04-.38-5.82-1.15-1.79-.77-3.34-1.83-4.67-3.2-1.33-1.37-2.35-2.96-3.08-4.77-.73-1.81-1.09-3.75-1.09-5.82s.36-4.05,1.09-5.86c.73-1.81,1.74-3.4,3.06-4.75,1.31-1.35,2.86-2.41,4.65-3.18,1.79-.77,3.71-1.15,5.78-1.15,2.32,0,4.34.39,6.07,1.17,1.73.78,3.27,1.84,4.61,3.18l-2.72,2.72c-.92-1.03-2.05-1.84-3.39-2.43-1.34-.59-2.86-.88-4.57-.88-1.51,0-2.9.27-4.19.82-1.28.54-2.4,1.32-3.35,2.32-.95,1.01-1.68,2.19-2.2,3.56-.52,1.37-.78,2.86-.78,4.48s.26,3.11.78,4.48c.52,1.37,1.25,2.56,2.2,3.56.95,1,2.07,1.78,3.35,2.32,1.28.54,2.69.82,4.23.82,1.81,0,3.39-.3,4.73-.9,1.34-.6,2.47-1.42,3.39-2.45l2.72,2.72c-1.34,1.37-2.91,2.44-4.71,3.22-1.8.78-3.83,1.17-6.09,1.17Z"/>
            <path class="cls-5" d="M404.16-496.37c-1.93,0-3.67-.46-5.24-1.38-1.56-.92-2.81-2.17-3.73-3.75-.92-1.58-1.38-3.34-1.38-5.3s.46-3.67,1.38-5.22c.92-1.55,2.16-2.78,3.73-3.71,1.56-.92,3.31-1.38,5.24-1.38s3.72.45,5.3,1.36c1.58.91,2.83,2.14,3.75,3.71.92,1.56,1.38,3.31,1.38,5.24s-.46,3.72-1.38,5.3c-.92,1.58-2.17,2.83-3.75,3.75-1.58.92-3.34,1.38-5.3,1.38ZM404.16-500.02c1.28,0,2.42-.29,3.39-.88.98-.59,1.74-1.39,2.3-2.41.56-1.02.84-2.18.84-3.5s-.29-2.43-.86-3.43c-.57-1.01-1.34-1.79-2.3-2.37-.96-.57-2.09-.86-3.37-.86s-2.33.29-3.31.86c-.98.57-1.75,1.36-2.3,2.37-.56,1.01-.84,2.15-.84,3.43s.28,2.48.84,3.5c.56,1.02,1.33,1.82,2.3,2.41.98.59,2.08.88,3.31.88Z"/>
            <path class="cls-5" d="M418.77-496.79v-19.9h3.77v19.9h-3.77ZM432.8-496.79v-11.6c0-1.51-.47-2.75-1.4-3.73-.94-.98-2.16-1.47-3.67-1.47-1,0-1.9.22-2.68.67-.78.45-1.4,1.06-1.84,1.84-.45.78-.67,1.68-.67,2.68l-1.55-.88c0-1.51.33-2.85,1.01-4.02.67-1.17,1.61-2.1,2.81-2.78,1.2-.68,2.56-1.03,4.06-1.03s2.84.38,4,1.13c1.16.75,2.07,1.74,2.74,2.95.67,1.21,1,2.51,1,3.87v12.36h-3.81Z"/>
            <path class="cls-5" d="M450.94-496.37c-2.01,0-3.81-.45-5.38-1.36-1.58-.91-2.83-2.14-3.75-3.71-.92-1.56-1.38-3.34-1.38-5.32s.45-3.71,1.36-5.28c.91-1.56,2.14-2.8,3.69-3.71,1.55-.91,3.29-1.36,5.21-1.36,1.81,0,3.43.42,4.86,1.26,1.42.84,2.53,2,3.33,3.48.8,1.48,1.19,3.17,1.19,5.07,0,.28-.01.58-.04.9-.03.32-.08.68-.17,1.07h-16.8v-3.14h14.79l-1.38,1.21c0-1.34-.24-2.48-.71-3.41-.47-.94-1.14-1.66-2.01-2.18-.87-.52-1.91-.77-3.14-.77s-2.42.28-3.39.84c-.98.56-1.73,1.34-2.26,2.35-.53,1.01-.8,2.19-.8,3.56s.28,2.62.84,3.67c.56,1.05,1.35,1.86,2.39,2.43,1.03.57,2.22.86,3.56.86,1.12,0,2.14-.19,3.08-.59.94-.39,1.74-.98,2.41-1.76l2.43,2.47c-.98,1.12-2.15,1.97-3.52,2.56-1.37.59-2.83.88-4.4.88Z"/>
            <path class="cls-5" d="M473.26-496.37c-1.95,0-3.72-.46-5.3-1.38-1.58-.92-2.82-2.17-3.73-3.75-.91-1.58-1.36-3.33-1.36-5.26s.45-3.71,1.36-5.28c.91-1.56,2.15-2.8,3.73-3.71,1.58-.91,3.34-1.36,5.3-1.36,1.54,0,2.96.29,4.27.86,1.31.57,2.44,1.4,3.39,2.49l-2.51,2.51c-.61-.73-1.37-1.28-2.26-1.65-.89-.38-1.86-.57-2.89-.57-1.26,0-2.37.29-3.35.86-.98.57-1.75,1.36-2.3,2.37-.56,1.01-.84,2.16-.84,3.48s.28,2.47.84,3.48c.56,1,1.33,1.8,2.3,2.39.98.59,2.09.88,3.35.88,1.06,0,2.03-.19,2.91-.56.88-.38,1.64-.93,2.28-1.65l2.47,2.51c-.92,1.06-2.05,1.88-3.37,2.47-1.33.59-2.76.88-4.29.88Z"/>
            <path class="cls-5" d="M482.56-513.25v-3.43h13.57v3.43h-13.57ZM487.46-496.79v-28.23h3.77v28.23h-3.77Z"/>
            <path class="cls-5" d="M507.65-496.37c-1.84,0-3.5-.45-4.96-1.36-1.47-.91-2.63-2.14-3.48-3.71-.85-1.56-1.28-3.32-1.28-5.28s.43-3.71,1.28-5.28c.85-1.56,2.01-2.81,3.48-3.73,1.47-.92,3.12-1.38,4.96-1.38,1.51,0,2.85.31,4.04.94,1.19.63,2.14,1.49,2.87,2.6.73,1.1,1.13,2.38,1.21,3.83v5.99c-.08,1.42-.48,2.7-1.19,3.81-.71,1.12-1.67,1.99-2.87,2.62-1.2.63-2.56.94-4.06.94ZM508.28-499.93c1.87,0,3.38-.63,4.52-1.91s1.72-2.9,1.72-4.88c0-1.34-.27-2.53-.8-3.56-.53-1.03-1.26-1.84-2.2-2.41-.94-.57-2.03-.86-3.29-.86s-2.37.29-3.33.88c-.96.59-1.72,1.39-2.26,2.41-.54,1.02-.82,2.18-.82,3.5s.27,2.52.82,3.54c.54,1.02,1.31,1.82,2.28,2.41.98.59,2.09.88,3.35.88ZM514.27-496.79v-5.36l.71-4.86-.71-4.82v-4.86h3.81v19.9h-3.81Z"/>
            <path class="cls-5" d="M615.46-496.37c-2.09,0-4.04-.38-5.82-1.15-1.79-.77-3.34-1.83-4.67-3.2-1.33-1.37-2.35-2.96-3.08-4.77-.73-1.81-1.09-3.75-1.09-5.82s.36-4.05,1.09-5.86c.73-1.81,1.74-3.4,3.06-4.75,1.31-1.35,2.86-2.41,4.65-3.18,1.79-.77,3.71-1.15,5.78-1.15,2.32,0,4.34.39,6.07,1.17,1.73.78,3.27,1.84,4.61,3.18l-2.72,2.72c-.92-1.03-2.05-1.84-3.39-2.43-1.34-.59-2.86-.88-4.57-.88-1.51,0-2.9.27-4.19.82-1.28.54-2.4,1.32-3.35,2.32-.95,1.01-1.68,2.19-2.2,3.56-.52,1.37-.78,2.86-.78,4.48s.26,3.11.78,4.48c.52,1.37,1.25,2.56,2.2,3.56.95,1,2.07,1.78,3.35,2.32,1.28.54,2.69.82,4.23.82,1.81,0,3.39-.3,4.73-.9,1.34-.6,2.47-1.42,3.39-2.45l2.72,2.72c-1.34,1.37-2.91,2.44-4.71,3.22-1.8.78-3.83,1.17-6.09,1.17Z"/>
            <path class="cls-5" d="M630.41-496.79v-19.9h3.77v19.9h-3.77ZM634.18-508.1l-1.42-.67c0-2.54.59-4.57,1.76-6.07,1.17-1.51,2.86-2.26,5.07-2.26,1.01,0,1.91.17,2.72.52.81.35,1.56.93,2.26,1.74l-2.47,2.55c-.42-.45-.88-.77-1.38-.96-.5-.19-1.09-.29-1.76-.29-1.4,0-2.54.45-3.43,1.34-.89.89-1.34,2.26-1.34,4.1Z"/>
            <path class="cls-5" d="M655.79-496.37c-2.01,0-3.8-.45-5.38-1.36-1.58-.91-2.83-2.14-3.75-3.71-.92-1.56-1.38-3.34-1.38-5.32s.45-3.71,1.36-5.28c.91-1.56,2.14-2.8,3.68-3.71,1.55-.91,3.29-1.36,5.22-1.36,1.81,0,3.43.42,4.86,1.26,1.42.84,2.53,2,3.33,3.48.8,1.48,1.19,3.17,1.19,5.07,0,.28-.01.58-.04.9-.03.32-.09.68-.17,1.07h-16.79v-3.14h14.78l-1.38,1.21c0-1.34-.24-2.48-.71-3.41-.47-.94-1.14-1.66-2.01-2.18-.86-.52-1.91-.77-3.14-.77s-2.42.28-3.39.84c-.98.56-1.73,1.34-2.26,2.35-.53,1.01-.8,2.19-.8,3.56s.28,2.62.84,3.67c.56,1.05,1.35,1.86,2.39,2.43,1.03.57,2.22.86,3.56.86,1.12,0,2.14-.19,3.08-.59.94-.39,1.74-.98,2.41-1.76l2.43,2.47c-.98,1.12-2.15,1.97-3.52,2.56-1.37.59-2.83.88-4.4.88Z"/>
            <path class="cls-5" d="M678.11-496.37c-1.95,0-3.72-.46-5.3-1.38-1.58-.92-2.82-2.17-3.73-3.75-.91-1.58-1.36-3.33-1.36-5.26s.45-3.71,1.36-5.28c.91-1.56,2.15-2.8,3.73-3.71,1.58-.91,3.34-1.36,5.3-1.36,1.54,0,2.96.29,4.27.86,1.31.57,2.44,1.4,3.39,2.49l-2.51,2.51c-.61-.73-1.37-1.28-2.26-1.65-.89-.38-1.86-.57-2.89-.57-1.26,0-2.37.29-3.35.86-.98.57-1.75,1.36-2.3,2.37-.56,1.01-.84,2.16-.84,3.48s.28,2.47.84,3.48c.56,1,1.33,1.8,2.3,2.39.98.59,2.09.88,3.35.88,1.06,0,2.03-.19,2.91-.56.88-.38,1.64-.93,2.28-1.65l2.47,2.51c-.92,1.06-2.05,1.88-3.37,2.47-1.33.59-2.76.88-4.29.88Z"/>
            <path class="cls-5" d="M698.3-496.37c-2.01,0-3.8-.45-5.38-1.36-1.58-.91-2.83-2.14-3.75-3.71-.92-1.56-1.38-3.34-1.38-5.32s.45-3.71,1.36-5.28c.91-1.56,2.14-2.8,3.69-3.71,1.55-.91,3.29-1.36,5.22-1.36,1.81,0,3.43.42,4.86,1.26,1.42.84,2.53,2,3.33,3.48.8,1.48,1.19,3.17,1.19,5.07,0,.28-.01.58-.04.9-.03.32-.08.68-.17,1.07h-16.8v-3.14h14.78l-1.38,1.21c0-1.34-.24-2.48-.71-3.41s-1.14-1.66-2.01-2.18c-.87-.52-1.91-.77-3.14-.77s-2.42.28-3.39.84c-.98.56-1.73,1.34-2.26,2.35-.53,1.01-.8,2.19-.8,3.56s.28,2.62.84,3.67c.56,1.05,1.35,1.86,2.39,2.43,1.03.57,2.22.86,3.56.86,1.12,0,2.14-.19,3.08-.59.93-.39,1.74-.98,2.41-1.76l2.43,2.47c-.98,1.12-2.15,1.97-3.52,2.56-1.37.59-2.83.88-4.4.88Z"/>
            <path class="cls-5" d="M790.23-496.79v-29.07h3.94v29.07h-3.94Z"/>
            <path class="cls-5" d="M800.37-496.79v-19.9h3.77v19.9h-3.77ZM813.81-496.79v-12.02c0-1.48-.45-2.65-1.36-3.5-.91-.85-2.05-1.28-3.41-1.28-.92,0-1.75.2-2.47.59s-1.31.94-1.76,1.63c-.45.7-.67,1.55-.67,2.55l-1.55-.8c0-1.51.33-2.82.98-3.94.66-1.12,1.56-1.99,2.7-2.62,1.14-.63,2.43-.94,3.85-.94s2.66.31,3.79.92c1.13.61,2.02,1.48,2.68,2.6.66,1.12.98,2.44.98,3.98v12.82h-3.77ZM827.26-496.79v-12.02c0-1.48-.45-2.65-1.36-3.5-.91-.85-2.03-1.28-3.37-1.28-.92,0-1.75.2-2.49.59s-1.33.94-1.78,1.63c-.45.7-.67,1.55-.67,2.55l-2.14-.8c.08-1.54.5-2.85,1.24-3.96.74-1.1,1.7-1.97,2.87-2.6,1.17-.63,2.46-.94,3.85-.94s2.75.31,3.9.92c1.14.61,2.06,1.48,2.74,2.6.68,1.12,1.03,2.46,1.03,4.02v12.77h-3.81Z"/>
            <path class="cls-5" d="M836.18-488.46v-28.23h3.77v5.24l-.71,4.82.71,4.86v13.32h-3.77ZM846.65-496.37c-1.51,0-2.87-.31-4.08-.94-1.21-.63-2.18-1.5-2.91-2.62-.73-1.12-1.13-2.39-1.21-3.81v-5.99c.08-1.45.5-2.73,1.24-3.83.74-1.1,1.72-1.97,2.93-2.6,1.21-.63,2.56-.94,4.04-.94,1.81,0,3.46.46,4.92,1.38,1.47.92,2.62,2.16,3.45,3.73.84,1.56,1.26,3.32,1.26,5.28s-.42,3.71-1.26,5.28c-.84,1.56-1.99,2.8-3.45,3.71-1.47.91-3.11,1.36-4.92,1.36ZM846.02-499.93c1.26,0,2.36-.29,3.31-.88.95-.59,1.7-1.39,2.24-2.41.54-1.02.82-2.2.82-3.54s-.27-2.48-.82-3.5c-.54-1.02-1.29-1.82-2.24-2.41-.95-.59-2.05-.88-3.31-.88s-2.32.29-3.27.88c-.95.59-1.69,1.39-2.22,2.41-.53,1.02-.8,2.2-.8,3.54s.26,2.48.77,3.5c.52,1.02,1.26,1.82,2.22,2.41.96.59,2.06.88,3.29.88Z"/>
            <path class="cls-5" d="M869.02-496.37c-1.84,0-3.5-.45-4.96-1.36-1.47-.91-2.62-2.14-3.48-3.71-.85-1.56-1.28-3.32-1.28-5.28s.43-3.71,1.28-5.28c.85-1.56,2.01-2.81,3.48-3.73,1.47-.92,3.12-1.38,4.96-1.38,1.51,0,2.85.31,4.04.94,1.19.63,2.14,1.49,2.87,2.6.73,1.1,1.13,2.38,1.21,3.83v5.99c-.08,1.42-.48,2.7-1.19,3.81-.71,1.12-1.67,1.99-2.87,2.62-1.2.63-2.55.94-4.06.94ZM869.65-499.93c1.87,0,3.38-.63,4.52-1.91,1.14-1.27,1.72-2.9,1.72-4.88,0-1.34-.27-2.53-.8-3.56-.53-1.03-1.26-1.84-2.2-2.41-.94-.57-2.03-.86-3.29-.86s-2.37.29-3.33.88c-.96.59-1.72,1.39-2.26,2.41-.54,1.02-.82,2.18-.82,3.5s.27,2.52.82,3.54c.54,1.02,1.31,1.82,2.28,2.41.98.59,2.09.88,3.35.88ZM875.64-496.79v-5.36l.71-4.86-.71-4.82v-4.86h3.81v19.9h-3.81Z"/>
            <path class="cls-5" d="M894.02-496.37c-1.95,0-3.72-.46-5.3-1.38-1.58-.92-2.82-2.17-3.73-3.75-.91-1.58-1.36-3.33-1.36-5.26s.45-3.71,1.36-5.28c.91-1.56,2.15-2.8,3.73-3.71,1.58-.91,3.34-1.36,5.3-1.36,1.54,0,2.96.29,4.27.86,1.31.57,2.44,1.4,3.39,2.49l-2.51,2.51c-.61-.73-1.37-1.28-2.26-1.65-.89-.38-1.86-.57-2.89-.57-1.26,0-2.37.29-3.35.86-.98.57-1.75,1.36-2.3,2.37-.56,1.01-.84,2.16-.84,3.48s.28,2.47.84,3.48c.56,1,1.33,1.8,2.3,2.39s2.09.88,3.35.88c1.06,0,2.03-.19,2.91-.56.88-.38,1.64-.93,2.28-1.65l2.47,2.51c-.92,1.06-2.05,1.88-3.37,2.47-1.33.59-2.76.88-4.29.88Z"/>
            <path class="cls-5" d="M903.32-513.25v-3.43h13.57v3.43h-13.57ZM908.22-496.79v-28.23h3.77v28.23h-3.77Z"/>
            <path class="cls-5" d="M928.41-496.37c-1.84,0-3.5-.45-4.96-1.36-1.47-.91-2.62-2.14-3.48-3.71-.85-1.56-1.28-3.32-1.28-5.28s.43-3.71,1.28-5.28c.85-1.56,2.01-2.81,3.48-3.73,1.47-.92,3.12-1.38,4.96-1.38,1.51,0,2.85.31,4.04.94,1.19.63,2.14,1.49,2.87,2.6.73,1.1,1.13,2.38,1.21,3.83v5.99c-.08,1.42-.48,2.7-1.19,3.81-.71,1.12-1.67,1.99-2.87,2.62-1.2.63-2.55.94-4.06.94ZM929.04-499.93c1.87,0,3.38-.63,4.52-1.91,1.14-1.27,1.72-2.9,1.72-4.88,0-1.34-.27-2.53-.8-3.56-.53-1.03-1.26-1.84-2.2-2.41-.94-.57-2.03-.86-3.29-.86s-2.37.29-3.33.88c-.96.59-1.72,1.39-2.26,2.41-.54,1.02-.82,2.18-.82,3.5s.27,2.52.82,3.54c.54,1.02,1.31,1.82,2.28,2.41.98.59,2.09.88,3.35.88ZM935.03-496.79v-5.36l.71-4.86-.71-4.82v-4.86h3.81v19.9h-3.81Z"/>
          </g>
          <circle class="cls-5" cx="560.44" cy="-507.37" r="6.82"/>
          <circle class="cls-5" cx="746.1" cy="-507.37" r="6.82"/>
        </g>
      </g>
      <g>
        <g>
          <path class="cls-2" d="M1427.29-493.31c-4.09-2.08-8.49-3.65-13.18-4.73-4.7-1.07-9.12-2.01-13.28-2.82-4.16-.81-7.55-1.91-10.16-3.32-2.62-1.41-3.92-3.45-3.92-6.14,0-1.74.53-3.25,1.61-4.53,1.07-1.27,2.55-2.28,4.43-3.02,1.88-.74,3.96-1.11,6.24-1.11,4.02,0,7.75.87,11.17,2.62,3.42,1.74,5.87,4.43,7.34,8.05l21.13-11.87c-2.01-3.89-4.8-7.45-8.35-10.66-3.56-3.22-7.95-5.83-13.18-7.85-5.23-2.01-11.47-3.02-18.71-3.02-8.18,0-15.29,1.41-21.33,4.23-6.04,2.82-10.7,6.64-13.98,11.47-3.29,4.83-4.93,10.26-4.93,16.3,0,6.44,1.31,11.57,3.92,15.39,2.62,3.82,6,6.74,10.16,8.75,4.16,2.01,8.58,3.56,13.28,4.63,4.69,1.08,9.09,2.01,13.18,2.82,4.09.81,7.48,1.85,10.16,3.12,2.68,1.28,4.02,3.25,4.02,5.94,0,2.01-.64,3.72-1.91,5.13-1.28,1.41-3.02,2.48-5.23,3.22-2.21.74-4.86,1.11-7.95,1.11-4.96,0-9.12-.91-12.48-2.72-3.35-1.81-6.17-4.73-8.45-8.75l-21.13,11.87c4.16,7.38,9.83,12.98,17,16.8,7.17,3.82,16,5.73,26.46,5.73,7.51,0,14.49-1.38,20.93-4.12,6.44-2.75,11.6-6.57,15.49-11.47,3.89-4.9,5.84-10.7,5.84-17.41,0-6.17-1.34-11.13-4.02-14.89-2.69-3.75-6.07-6.67-10.16-8.75Z"/>
          <rect class="cls-6" x="1450.19" y="-539.08" width="28.57" height="99.6"/>
          <path class="cls-2" d="M1568.47-534.76c-7.72-4.76-17.41-7.14-29.08-7.14s-21.33,2.38-28.97,7.14c-7.65,4.76-13.38,11.14-17.2,19.11-3.82,7.98-5.74,16.8-5.74,26.46v49.7h28.57v-46.28c0-5.23.8-9.96,2.41-14.19,1.61-4.23,4.16-7.65,7.65-10.26,3.49-2.62,7.91-3.92,13.28-3.92s9.96,1.31,13.38,3.92c3.42,2.62,6,6.07,7.75,10.36,1.74,4.3,2.62,8.99,2.62,14.09v46.28h28.57v-49.7c0-9.79-1.95-18.64-5.84-26.56-3.89-7.91-9.69-14.25-17.4-19.01Z"/>
          <path class="cls-2" d="M1676.59-476.5c-2.21,3.89-5.23,7.01-9.05,9.36-3.82,2.35-8.22,3.52-13.18,3.52s-9.15-1.17-12.98-3.52c-3.82-2.35-6.84-5.46-9.05-9.36-2.21-3.89-3.32-8.18-3.32-12.88s1.11-8.99,3.32-12.88c2.21-3.89,5.23-7.01,9.05-9.36,3.82-2.34,8.15-3.52,12.98-3.52s9.36,1.18,13.18,3.52c3.82,2.35,6.84,5.47,9.05,9.36,2.21,3.89,3.32,8.18,3.32,12.88s-1.11,8.99-3.32,12.88h0ZM1682.02-534.96c-8.12-4.76-17.34-7.14-27.67-7.14s-19.18,2.38-27.36,7.14c-8.18,4.76-14.66,11.1-19.42,19.01-4.76,7.92-7.14,16.7-7.14,26.36s2.38,18.48,7.14,26.46c4.76,7.98,11.2,14.36,19.32,19.11,8.11,4.76,17.27,7.14,27.47,7.14s19.38-2.38,27.57-7.14c8.18-4.76,14.65-11.13,19.42-19.11,4.76-7.98,7.14-16.8,7.14-26.46s-2.38-18.28-7.14-26.26c-4.76-7.98-11.2-14.35-19.32-19.12Z"/>
          <path class="cls-2" d="M1759.82-465.34c0-.09.07-.11.19-.08-.02.05-.07.08-.19.08h0ZM1785.98-540.39l-26.06,74.19-26.06-74.19h-30.38l30.38,83.1c2.28,6.44,5.67,11.27,10.16,14.49,4.49,3.22,9.76,4.83,15.8,4.83s11.4-1.61,15.69-4.83c4.29-3.22,7.65-8.05,10.06-14.49l30.79-83.1h-30.38Z"/>
          <path class="cls-2" d="M1892.35-477.81c-2.21,3.89-5.23,7.01-9.05,9.36-3.82,2.35-8.22,3.52-13.18,3.52s-9.16-1.17-12.98-3.52c-3.82-2.35-6.84-5.46-9.05-9.36-2.21-3.89-3.32-8.18-3.32-12.88s1.11-8.99,3.32-12.88c2.21-3.89,5.23-7.01,9.05-9.36,3.82-2.34,8.15-3.52,12.98-3.52s9.36,1.18,13.18,3.52c3.82,2.35,6.84,5.47,9.05,9.36,2.21,3.89,3.32,8.18,3.32,12.88s-1.11,8.99-3.32,12.88h0ZM1917.2-517.75c-4.7-7.85-11.14-14.09-19.32-18.71-8.18-4.63-17.44-6.94-27.77-6.94s-19.35,2.38-27.47,7.14c-8.12,4.76-14.56,11.14-19.32,19.12-4.76,7.98-7.14,16.74-7.14,26.26s2.11,18.48,6.34,26.46c4.23,7.98,10.03,14.36,17.4,19.11,7.38,4.76,15.9,7.14,25.55,7.14,8.32,0,15.42-1.78,21.33-5.33,4.02-2.42,7.43-5.47,10.26-9.13v11.85h27.16v-50.1c0-10.06-2.35-19.02-7.04-26.86Z"/>
        </g>
        <g>
          <path class="cls-2" d="M1666.79-775.26v60.39c-33.22,0-60.14-27.04-60.14-60.39s26.93-60.39,60.14-60.39v60.39Z"/>
          <path class="cls-2" d="M1606.65-775.26v60.39c-33.22,0-60.14-27.04-60.14-60.39s26.93-60.39,60.14-60.39v60.39Z"/>
          <path class="cls-2" d="M1726.94-775.26h-60.14c0-33.35,26.93-60.39,60.14-60.39v60.39Z"/>
          <path class="cls-2" d="M1606.65-654.47v-60.39c33.22,0,60.14,27.04,60.14,60.39s-26.93,60.39-60.14,60.39v-60.39Z"/>
          <path class="cls-2" d="M1666.79-654.47v-60.39c33.22,0,60.14,27.04,60.14,60.39s-26.93,60.39-60.14,60.39v-60.39Z"/>
          <path class="cls-2" d="M1546.51-654.47h60.14c0,33.35-26.93,60.39-60.14,60.39v-60.39Z"/>
        </g>
        <g>
          <g>
            <path class="cls-5" d="M1388.71-384.16c-1.94,0-3.73-.36-5.39-1.07-1.65-.71-3.09-1.7-4.32-2.96-1.23-1.27-2.18-2.74-2.85-4.42-.67-1.68-1.01-3.47-1.01-5.38s.34-3.74,1.01-5.42c.67-1.68,1.61-3.14,2.83-4.4,1.21-1.25,2.65-2.23,4.3-2.94,1.65-.71,3.43-1.07,5.35-1.07,2.14,0,4.02.36,5.62,1.08,1.6.72,3.02,1.7,4.26,2.94l-2.52,2.52c-.85-.96-1.9-1.7-3.14-2.25-1.24-.54-2.65-.81-4.22-.81-1.39,0-2.69.25-3.87.76-1.19.5-2.22,1.22-3.1,2.15-.88.93-1.56,2.03-2.03,3.29-.48,1.27-.72,2.65-.72,4.15s.24,2.88.72,4.14c.48,1.27,1.16,2.36,2.03,3.29.88.93,1.91,1.65,3.1,2.15,1.19.5,2.49.76,3.91.76,1.68,0,3.14-.28,4.38-.83,1.24-.56,2.29-1.31,3.14-2.27l2.52,2.52c-1.24,1.27-2.69,2.26-4.36,2.98-1.67.72-3.54,1.08-5.64,1.08Z"/>
            <path class="cls-5" d="M1410.29-384.16c-1.78,0-3.4-.43-4.84-1.28-1.45-.85-2.6-2.01-3.45-3.47-.85-1.46-1.28-3.09-1.28-4.9s.43-3.39,1.28-4.82c.85-1.43,2-2.58,3.45-3.43,1.45-.85,3.06-1.28,4.84-1.28s3.44.42,4.9,1.26c1.46.84,2.62,1.98,3.47,3.43.85,1.45,1.28,3.06,1.28,4.84s-.43,3.44-1.28,4.9c-.85,1.46-2.01,2.62-3.47,3.47-1.46.85-3.09,1.28-4.9,1.28ZM1410.29-387.53c1.19,0,2.23-.27,3.14-.81.9-.54,1.61-1.28,2.13-2.23.52-.94.77-2.02.77-3.23s-.26-2.25-.79-3.18c-.53-.93-1.24-1.66-2.13-2.19-.89-.53-1.93-.79-3.12-.79s-2.16.27-3.06.79c-.9.53-1.61,1.26-2.13,2.19-.52.93-.77,1.99-.77,3.18s.26,2.29.77,3.23c.52.94,1.23,1.68,2.13,2.23.9.54,1.92.81,3.06.81Z"/>
            <path class="cls-5" d="M1423.81-384.54v-18.4h3.49v18.4h-3.49ZM1436.79-384.54v-10.73c0-1.39-.43-2.54-1.3-3.45-.87-.9-2-1.36-3.39-1.36-.93,0-1.76.21-2.48.62-.72.41-1.29.98-1.7,1.7-.41.72-.62,1.55-.62,2.48l-1.43-.81c0-1.4.31-2.63.93-3.72.62-1.08,1.49-1.94,2.6-2.58,1.11-.63,2.36-.95,3.76-.95s2.63.35,3.7,1.05c1.07.7,1.92,1.61,2.54,2.73.62,1.12.93,2.32.93,3.58v11.43h-3.53Z"/>
            <path class="cls-5" d="M1453.56-384.16c-1.86,0-3.52-.42-4.98-1.26-1.46-.84-2.62-1.98-3.47-3.43-.85-1.45-1.28-3.09-1.28-4.92s.42-3.43,1.26-4.88c.84-1.45,1.98-2.59,3.41-3.43,1.43-.84,3.04-1.26,4.82-1.26,1.68,0,3.18.39,4.49,1.16,1.32.77,2.34,1.85,3.08,3.22.74,1.37,1.1,2.93,1.1,4.69,0,.26-.01.54-.04.83-.03.3-.08.63-.16.99h-15.54v-2.91h13.68l-1.28,1.12c0-1.24-.22-2.29-.66-3.16-.44-.87-1.06-1.54-1.86-2.01-.8-.48-1.77-.72-2.91-.72s-2.23.26-3.14.77c-.9.52-1.6,1.24-2.09,2.17-.49.93-.74,2.03-.74,3.29s.26,2.42.77,3.39c.52.97,1.25,1.72,2.21,2.25.96.53,2.05.79,3.29.79,1.03,0,1.98-.18,2.85-.54.86-.36,1.61-.9,2.23-1.63l2.25,2.29c-.9,1.03-1.99,1.82-3.25,2.36-1.27.54-2.62.81-4.07.81Z"/>
            <path class="cls-5" d="M1474.21-384.16c-1.81,0-3.44-.43-4.9-1.28-1.46-.85-2.61-2.01-3.45-3.47-.84-1.46-1.26-3.08-1.26-4.86s.42-3.43,1.26-4.88c.84-1.45,1.99-2.59,3.45-3.43,1.46-.84,3.09-1.26,4.9-1.26,1.42,0,2.74.26,3.95.79,1.21.53,2.26,1.3,3.14,2.31l-2.32,2.32c-.57-.67-1.27-1.18-2.09-1.53-.83-.35-1.72-.52-2.67-.52-1.16,0-2.2.27-3.1.79-.9.53-1.61,1.26-2.13,2.19-.52.93-.77,2-.77,3.22s.26,2.29.77,3.22c.52.93,1.23,1.67,2.13,2.21.9.54,1.94.81,3.1.81.98,0,1.88-.17,2.69-.52.81-.35,1.52-.86,2.11-1.53l2.29,2.32c-.85.98-1.89,1.74-3.12,2.29-1.23.54-2.55.81-3.97.81Z"/>
            <path class="cls-5" d="M1482.81-399.77v-3.18h12.55v3.18h-12.55ZM1487.35-384.54v-26.11h3.49v26.11h-3.49Z"/>
            <path class="cls-5" d="M1506.02-384.16c-1.7,0-3.23-.42-4.59-1.26-1.36-.84-2.43-1.98-3.22-3.43-.79-1.45-1.18-3.07-1.18-4.88s.39-3.43,1.18-4.88c.79-1.45,1.86-2.6,3.22-3.45,1.36-.85,2.89-1.28,4.59-1.28,1.39,0,2.64.29,3.74.87,1.1.58,1.98,1.38,2.65,2.4.67,1.02,1.05,2.2,1.12,3.54v5.54c-.08,1.32-.45,2.49-1.1,3.53-.66,1.03-1.54,1.84-2.65,2.42-1.11.58-2.36.87-3.76.87ZM1506.6-387.45c1.73,0,3.12-.59,4.18-1.76,1.06-1.18,1.59-2.68,1.59-4.51,0-1.24-.25-2.34-.74-3.29-.49-.96-1.17-1.7-2.03-2.23-.87-.53-1.88-.79-3.04-.79s-2.19.27-3.08.81c-.89.54-1.59,1.29-2.09,2.23-.5.94-.76,2.02-.76,3.23s.25,2.33.76,3.27c.5.94,1.21,1.69,2.11,2.23.9.54,1.94.81,3.1.81ZM1512.14-384.54v-4.96l.66-4.49-.66-4.46v-4.49h3.53v18.4h-3.53Z"/>
            <path class="cls-5" d="M1605.73-384.16c-1.94,0-3.73-.36-5.39-1.07-1.65-.71-3.09-1.7-4.32-2.96-1.23-1.27-2.18-2.74-2.85-4.42-.67-1.68-1.01-3.47-1.01-5.38s.34-3.74,1.01-5.42c.67-1.68,1.61-3.14,2.83-4.4,1.21-1.25,2.65-2.23,4.3-2.94,1.65-.71,3.43-1.07,5.35-1.07,2.14,0,4.02.36,5.62,1.08,1.6.72,3.02,1.7,4.26,2.94l-2.52,2.52c-.85-.96-1.9-1.7-3.14-2.25-1.24-.54-2.65-.81-4.22-.81-1.39,0-2.69.25-3.87.76-1.19.5-2.22,1.22-3.1,2.15-.88.93-1.56,2.03-2.03,3.29-.48,1.27-.72,2.65-.72,4.15s.24,2.88.72,4.14c.48,1.27,1.16,2.36,2.03,3.29.88.93,1.91,1.65,3.1,2.15,1.19.5,2.49.76,3.91.76,1.68,0,3.14-.28,4.38-.83,1.24-.56,2.29-1.31,3.14-2.27l2.52,2.52c-1.24,1.27-2.69,2.26-4.36,2.98-1.67.72-3.54,1.08-5.64,1.08Z"/>
            <path class="cls-5" d="M1619.56-384.54v-18.4h3.49v18.4h-3.49ZM1623.05-395l-1.32-.62c0-2.35.54-4.22,1.63-5.62,1.08-1.4,2.65-2.09,4.69-2.09.93,0,1.77.16,2.52.48.75.32,1.45.86,2.09,1.61l-2.29,2.36c-.39-.41-.81-.71-1.28-.89-.46-.18-1.01-.27-1.63-.27-1.29,0-2.35.41-3.18,1.24-.83.83-1.24,2.09-1.24,3.8Z"/>
            <path class="cls-5" d="M1643.04-384.16c-1.86,0-3.52-.42-4.98-1.26-1.46-.84-2.62-1.98-3.47-3.43-.85-1.45-1.28-3.09-1.28-4.92s.42-3.43,1.26-4.88c.84-1.45,1.98-2.59,3.41-3.43,1.43-.84,3.04-1.26,4.82-1.26,1.68,0,3.18.39,4.49,1.16,1.32.77,2.34,1.85,3.08,3.22.74,1.37,1.1,2.93,1.1,4.69,0,.26-.01.54-.04.83-.03.3-.08.63-.16.99h-15.53v-2.91h13.67l-1.28,1.12c0-1.24-.22-2.29-.66-3.16s-1.06-1.54-1.86-2.01c-.8-.48-1.77-.72-2.9-.72s-2.23.26-3.14.77c-.91.52-1.6,1.24-2.09,2.17-.49.93-.74,2.03-.74,3.29s.26,2.42.77,3.39c.52.97,1.25,1.72,2.21,2.25s2.05.79,3.29.79c1.03,0,1.98-.18,2.85-.54.87-.36,1.61-.9,2.23-1.63l2.25,2.29c-.9,1.03-1.99,1.82-3.25,2.36-1.26.54-2.62.81-4.07.81Z"/>
            <path class="cls-5" d="M1663.69-384.16c-1.81,0-3.44-.43-4.9-1.28-1.46-.85-2.61-2.01-3.45-3.47-.84-1.46-1.26-3.08-1.26-4.86s.42-3.43,1.26-4.88c.84-1.45,1.99-2.59,3.45-3.43,1.46-.84,3.09-1.26,4.9-1.26,1.42,0,2.74.26,3.95.79,1.21.53,2.26,1.3,3.14,2.31l-2.32,2.32c-.57-.67-1.27-1.18-2.09-1.53-.83-.35-1.72-.52-2.67-.52-1.16,0-2.2.27-3.1.79-.9.53-1.61,1.26-2.13,2.19-.52.93-.77,2-.77,3.22s.26,2.29.77,3.22c.52.93,1.23,1.67,2.13,2.21s1.94.81,3.1.81c.98,0,1.88-.17,2.69-.52.81-.35,1.52-.86,2.11-1.53l2.29,2.32c-.85.98-1.89,1.74-3.12,2.29-1.23.54-2.55.81-3.97.81Z"/>
            <path class="cls-5" d="M1682.36-384.16c-1.86,0-3.52-.42-4.98-1.26-1.46-.84-2.62-1.98-3.47-3.43-.85-1.45-1.28-3.09-1.28-4.92s.42-3.43,1.26-4.88c.84-1.45,1.98-2.59,3.41-3.43,1.43-.84,3.04-1.26,4.82-1.26,1.68,0,3.18.39,4.49,1.16,1.32.77,2.34,1.85,3.08,3.22.74,1.37,1.1,2.93,1.1,4.69,0,.26-.01.54-.04.83-.03.3-.08.63-.16.99h-15.54v-2.91h13.68l-1.28,1.12c0-1.24-.22-2.29-.66-3.16-.44-.87-1.06-1.54-1.86-2.01-.8-.48-1.77-.72-2.91-.72s-2.23.26-3.14.77c-.9.52-1.6,1.24-2.09,2.17-.49.93-.74,2.03-.74,3.29s.26,2.42.77,3.39c.52.97,1.25,1.72,2.21,2.25.96.53,2.05.79,3.29.79,1.03,0,1.98-.18,2.85-.54.86-.36,1.61-.9,2.23-1.63l2.25,2.29c-.9,1.03-1.99,1.82-3.25,2.36-1.27.54-2.62.81-4.07.81Z"/>
            <path class="cls-5" d="M1767.4-384.54v-26.89h3.64v26.89h-3.64Z"/>
            <path class="cls-5" d="M1776.77-384.54v-18.4h3.49v18.4h-3.49ZM1789.21-384.54v-11.12c0-1.37-.42-2.45-1.26-3.23-.84-.79-1.89-1.18-3.16-1.18-.85,0-1.61.18-2.29.54s-1.21.87-1.63,1.51c-.41.65-.62,1.43-.62,2.36l-1.43-.74c0-1.39.3-2.61.91-3.64.61-1.03,1.44-1.84,2.5-2.42,1.06-.58,2.25-.87,3.56-.87s2.46.28,3.51.85c1.05.57,1.87,1.37,2.48,2.4.61,1.03.91,2.26.91,3.68v11.85h-3.49ZM1801.64-384.54v-11.12c0-1.37-.42-2.45-1.26-3.23-.84-.79-1.88-1.18-3.12-1.18-.85,0-1.62.18-2.31.54s-1.23.87-1.65,1.51c-.41.65-.62,1.43-.62,2.36l-1.98-.74c.08-1.42.46-2.64,1.14-3.66.68-1.02,1.57-1.82,2.65-2.4,1.08-.58,2.27-.87,3.56-.87s2.54.28,3.6.85c1.06.57,1.9,1.37,2.54,2.4.63,1.03.95,2.27.95,3.72v11.82h-3.53Z"/>
            <path class="cls-5" d="M1809.89-376.83v-26.11h3.49v4.84l-.66,4.46.66,4.49v12.32h-3.49ZM1819.58-384.16c-1.39,0-2.65-.29-3.78-.87-1.12-.58-2.02-1.39-2.69-2.42-.67-1.03-1.05-2.21-1.12-3.53v-5.54c.08-1.34.46-2.52,1.14-3.54.68-1.02,1.59-1.82,2.71-2.4,1.12-.58,2.37-.87,3.74-.87,1.68,0,3.2.43,4.55,1.28,1.36.85,2.42,2,3.2,3.45.78,1.45,1.16,3.07,1.16,4.88s-.39,3.44-1.16,4.88c-.77,1.45-1.84,2.59-3.2,3.43-1.36.84-2.87,1.26-4.55,1.26ZM1819-387.45c1.16,0,2.18-.27,3.06-.81.88-.54,1.57-1.28,2.07-2.23.5-.94.76-2.03.76-3.27s-.25-2.29-.76-3.23c-.5-.94-1.19-1.69-2.07-2.23-.88-.54-1.9-.81-3.06-.81s-2.14.27-3.02.81c-.88.54-1.56,1.29-2.05,2.23-.49.94-.74,2.03-.74,3.27s.24,2.29.72,3.23c.48.94,1.16,1.69,2.05,2.23.89.54,1.9.81,3.04.81Z"/>
            <path class="cls-5" d="M1840.27-384.16c-1.7,0-3.23-.42-4.59-1.26-1.36-.84-2.43-1.98-3.22-3.43-.79-1.45-1.18-3.07-1.18-4.88s.39-3.43,1.18-4.88c.79-1.45,1.86-2.6,3.22-3.45,1.36-.85,2.89-1.28,4.59-1.28,1.4,0,2.64.29,3.74.87,1.1.58,1.98,1.38,2.65,2.4.67,1.02,1.05,2.2,1.12,3.54v5.54c-.08,1.32-.45,2.49-1.1,3.53-.66,1.03-1.54,1.84-2.65,2.42-1.11.58-2.36.87-3.76.87ZM1840.85-387.45c1.73,0,3.13-.59,4.18-1.76,1.06-1.18,1.59-2.68,1.59-4.51,0-1.24-.25-2.34-.74-3.29-.49-.96-1.17-1.7-2.03-2.23-.87-.53-1.88-.79-3.04-.79s-2.19.27-3.08.81c-.89.54-1.59,1.29-2.09,2.23-.5.94-.76,2.02-.76,3.23s.25,2.33.76,3.27c.5.94,1.21,1.69,2.11,2.23.9.54,1.94.81,3.1.81ZM1846.39-384.54v-4.96l.66-4.49-.66-4.46v-4.49h3.53v18.4h-3.53Z"/>
            <path class="cls-5" d="M1863.39-384.16c-1.81,0-3.44-.43-4.9-1.28-1.46-.85-2.61-2.01-3.45-3.47-.84-1.46-1.26-3.08-1.26-4.86s.42-3.43,1.26-4.88c.84-1.45,1.99-2.59,3.45-3.43,1.46-.84,3.09-1.26,4.9-1.26,1.42,0,2.74.26,3.95.79,1.21.53,2.26,1.3,3.14,2.31l-2.32,2.32c-.57-.67-1.27-1.18-2.09-1.53-.83-.35-1.72-.52-2.67-.52-1.16,0-2.2.27-3.1.79-.9.53-1.61,1.26-2.13,2.19-.52.93-.77,2-.77,3.22s.26,2.29.77,3.22c.52.93,1.23,1.67,2.13,2.21.9.54,1.94.81,3.1.81.98,0,1.88-.17,2.69-.52.81-.35,1.52-.86,2.11-1.53l2.29,2.32c-.85.98-1.89,1.74-3.12,2.29-1.23.54-2.55.81-3.97.81Z"/>
            <path class="cls-5" d="M1871.99-399.77v-3.18h12.55v3.18h-12.55ZM1876.53-384.54v-26.11h3.49v26.11h-3.49Z"/>
            <path class="cls-5" d="M1895.2-384.16c-1.7,0-3.23-.42-4.59-1.26-1.36-.84-2.43-1.98-3.22-3.43-.79-1.45-1.18-3.07-1.18-4.88s.39-3.43,1.18-4.88c.79-1.45,1.86-2.6,3.22-3.45,1.36-.85,2.89-1.28,4.59-1.28,1.4,0,2.64.29,3.74.87,1.1.58,1.98,1.38,2.65,2.4.67,1.02,1.05,2.2,1.12,3.54v5.54c-.08,1.32-.45,2.49-1.1,3.53-.66,1.03-1.54,1.84-2.65,2.42-1.11.58-2.36.87-3.76.87ZM1895.78-387.45c1.73,0,3.13-.59,4.18-1.76,1.06-1.18,1.59-2.68,1.59-4.51,0-1.24-.25-2.34-.74-3.29-.49-.96-1.17-1.7-2.03-2.23-.87-.53-1.88-.79-3.04-.79s-2.19.27-3.08.81c-.89.54-1.59,1.29-2.09,2.23-.5.94-.76,2.02-.76,3.23s.25,2.33.76,3.27c.5.94,1.21,1.69,2.11,2.23.9.54,1.94.81,3.1.81ZM1901.32-384.54v-4.96l.66-4.49-.66-4.46v-4.49h3.53v18.4h-3.53Z"/>
          </g>
          <circle class="cls-5" cx="1554.85" cy="-394.32" r="6.31"/>
          <circle class="cls-5" cx="1726.58" cy="-394.32" r="6.31"/>
        </g>
      </g>
      <g>
        <g>
          <path class="cls-2" d="M1427.29,652.93c-4.09-2.08-8.49-3.65-13.18-4.73-4.7-1.07-9.12-2.01-13.28-2.82-4.16-.81-7.55-1.91-10.16-3.32-2.62-1.41-3.92-3.45-3.92-6.14,0-1.74.53-3.25,1.61-4.53,1.07-1.27,2.55-2.28,4.43-3.02,1.88-.74,3.96-1.11,6.24-1.11,4.02,0,7.75.87,11.17,2.62,3.42,1.74,5.87,4.43,7.34,8.05l21.13-11.87c-2.01-3.89-4.8-7.45-8.35-10.66-3.56-3.22-7.95-5.83-13.18-7.85-5.23-2.01-11.47-3.02-18.71-3.02-8.18,0-15.29,1.41-21.33,4.23-6.04,2.82-10.7,6.64-13.98,11.47-3.29,4.83-4.93,10.26-4.93,16.3,0,6.44,1.31,11.57,3.92,15.39,2.62,3.82,6,6.74,10.16,8.75,4.16,2.01,8.58,3.56,13.28,4.63,4.69,1.08,9.09,2.01,13.18,2.82,4.09.81,7.48,1.85,10.16,3.12,2.68,1.28,4.02,3.25,4.02,5.94,0,2.01-.64,3.72-1.91,5.13-1.28,1.41-3.02,2.48-5.23,3.22-2.21.74-4.86,1.11-7.95,1.11-4.96,0-9.12-.91-12.48-2.72-3.35-1.81-6.17-4.73-8.45-8.75l-21.13,11.87c4.16,7.38,9.83,12.98,17,16.8,7.17,3.82,16,5.73,26.46,5.73,7.51,0,14.49-1.38,20.93-4.12,6.44-2.75,11.6-6.57,15.49-11.47,3.89-4.9,5.84-10.7,5.84-17.41,0-6.17-1.34-11.13-4.02-14.89-2.69-3.75-6.07-6.67-10.16-8.75Z"/>
          <rect class="cls-6" x="1450.19" y="607.16" width="28.57" height="99.6"/>
          <path class="cls-2" d="M1568.47,611.48c-7.72-4.76-17.41-7.14-29.08-7.14s-21.33,2.38-28.97,7.14c-7.65,4.76-13.38,11.14-17.2,19.11-3.82,7.98-5.74,16.8-5.74,26.46v49.7h28.57v-46.28c0-5.23.8-9.96,2.41-14.19,1.61-4.23,4.16-7.65,7.65-10.26,3.49-2.62,7.91-3.92,13.28-3.92s9.96,1.31,13.38,3.92c3.42,2.62,6,6.07,7.75,10.36,1.74,4.3,2.62,8.99,2.62,14.09v46.28h28.57v-49.7c0-9.79-1.95-18.64-5.84-26.56-3.89-7.91-9.69-14.25-17.4-19.01Z"/>
          <path class="cls-2" d="M1676.59,669.74c-2.21,3.89-5.23,7.01-9.05,9.36-3.82,2.35-8.22,3.52-13.18,3.52s-9.15-1.17-12.98-3.52c-3.82-2.35-6.84-5.46-9.05-9.36-2.21-3.89-3.32-8.18-3.32-12.88s1.11-8.99,3.32-12.88c2.21-3.89,5.23-7.01,9.05-9.36,3.82-2.34,8.15-3.52,12.98-3.52s9.36,1.18,13.18,3.52c3.82,2.35,6.84,5.47,9.05,9.36,2.21,3.89,3.32,8.18,3.32,12.88s-1.11,8.99-3.32,12.88h0ZM1682.02,611.28c-8.12-4.76-17.34-7.14-27.67-7.14s-19.18,2.38-27.36,7.14c-8.18,4.76-14.66,11.1-19.42,19.01-4.76,7.92-7.14,16.7-7.14,26.36s2.38,18.48,7.14,26.46c4.76,7.98,11.2,14.36,19.32,19.11,8.11,4.76,17.27,7.14,27.47,7.14s19.38-2.38,27.57-7.14c8.18-4.76,14.65-11.13,19.42-19.11,4.76-7.98,7.14-16.8,7.14-26.46s-2.38-18.28-7.14-26.26c-4.76-7.98-11.2-14.35-19.32-19.12Z"/>
          <path class="cls-2" d="M1759.82,680.9c0-.09.07-.11.19-.08-.02.05-.07.08-.19.08h0ZM1785.98,605.85l-26.06,74.19-26.06-74.19h-30.38l30.38,83.1c2.28,6.44,5.67,11.27,10.16,14.49,4.49,3.22,9.76,4.83,15.8,4.83s11.4-1.61,15.69-4.83c4.29-3.22,7.65-8.05,10.06-14.49l30.79-83.1h-30.38Z"/>
          <path class="cls-2" d="M1892.35,668.43c-2.21,3.89-5.23,7.01-9.05,9.36-3.82,2.35-8.22,3.52-13.18,3.52s-9.16-1.17-12.98-3.52c-3.82-2.35-6.84-5.46-9.05-9.36-2.21-3.89-3.32-8.18-3.32-12.88s1.11-8.99,3.32-12.88c2.21-3.89,5.23-7.01,9.05-9.36,3.82-2.34,8.15-3.52,12.98-3.52s9.36,1.18,13.18,3.52c3.82,2.35,6.84,5.47,9.05,9.36,2.21,3.89,3.32,8.18,3.32,12.88s-1.11,8.99-3.32,12.88h0ZM1917.2,628.49c-4.7-7.85-11.14-14.09-19.32-18.71-8.18-4.63-17.44-6.94-27.77-6.94s-19.35,2.38-27.47,7.14c-8.12,4.76-14.56,11.14-19.32,19.12-4.76,7.98-7.14,16.74-7.14,26.26s2.11,18.48,6.34,26.46c4.23,7.98,10.03,14.36,17.4,19.11,7.38,4.76,15.9,7.14,25.55,7.14,8.32,0,15.42-1.78,21.33-5.33,4.02-2.42,7.43-5.47,10.26-9.13v11.85h27.16v-50.1c0-10.06-2.35-19.02-7.04-26.86Z"/>
        </g>
        <path class="cls-1" d="M1606.65,370.98v60.39c-33.22,0-60.14-27.04-60.14-60.39s26.93-60.39,60.14-60.39v60.39Z"/>
        <path class="cls-4" d="M1726.94,370.98h-60.14c0-33.35,26.93-60.39,60.14-60.39v60.39Z"/>
        <path class="cls-3" d="M1606.65,491.77v-60.39c33.22,0,60.14,27.04,60.14,60.39s-26.93,60.39-60.14,60.39v-60.39Z"/>
        <path class="cls-1" d="M1666.79,491.77v-60.39c33.22,0,60.14,27.04,60.14,60.39s-26.93,60.39-60.14,60.39v-60.39Z"/>
        <path class="cls-2" d="M1546.51,491.77h60.14c0,33.35-26.93,60.39-60.14,60.39v-60.39Z"/>
        <g>
          <g>
            <path class="cls-5" d="M1388.71,762.08c-1.94,0-3.73-.36-5.39-1.07-1.65-.71-3.09-1.7-4.32-2.96-1.23-1.27-2.18-2.74-2.85-4.42-.67-1.68-1.01-3.47-1.01-5.38s.34-3.74,1.01-5.42c.67-1.68,1.61-3.14,2.83-4.4,1.21-1.25,2.65-2.23,4.3-2.94,1.65-.71,3.43-1.07,5.35-1.07,2.14,0,4.02.36,5.62,1.08,1.6.72,3.02,1.7,4.26,2.94l-2.52,2.52c-.85-.96-1.9-1.7-3.14-2.25-1.24-.54-2.65-.81-4.22-.81-1.39,0-2.69.25-3.87.76-1.19.5-2.22,1.22-3.1,2.15-.88.93-1.56,2.03-2.03,3.29-.48,1.27-.72,2.65-.72,4.15s.24,2.88.72,4.14c.48,1.27,1.16,2.36,2.03,3.29.88.93,1.91,1.65,3.1,2.15,1.19.5,2.49.76,3.91.76,1.68,0,3.14-.28,4.38-.83,1.24-.56,2.29-1.31,3.14-2.27l2.52,2.52c-1.24,1.27-2.69,2.26-4.36,2.98-1.67.72-3.54,1.08-5.64,1.08Z"/>
            <path class="cls-5" d="M1410.29,762.08c-1.78,0-3.4-.43-4.84-1.28-1.45-.85-2.6-2.01-3.45-3.47-.85-1.46-1.28-3.09-1.28-4.9s.43-3.39,1.28-4.82c.85-1.43,2-2.58,3.45-3.43,1.45-.85,3.06-1.28,4.84-1.28s3.44.42,4.9,1.26c1.46.84,2.62,1.98,3.47,3.43.85,1.45,1.28,3.06,1.28,4.84s-.43,3.44-1.28,4.9c-.85,1.46-2.01,2.62-3.47,3.47-1.46.85-3.09,1.28-4.9,1.28ZM1410.29,758.71c1.19,0,2.23-.27,3.14-.81.9-.54,1.61-1.28,2.13-2.23.52-.94.77-2.02.77-3.23s-.26-2.25-.79-3.18c-.53-.93-1.24-1.66-2.13-2.19-.89-.53-1.93-.79-3.12-.79s-2.16.27-3.06.79c-.9.53-1.61,1.26-2.13,2.19-.52.93-.77,1.99-.77,3.18s.26,2.29.77,3.23c.52.94,1.23,1.68,2.13,2.23.9.54,1.92.81,3.06.81Z"/>
            <path class="cls-5" d="M1423.81,761.7v-18.4h3.49v18.4h-3.49ZM1436.79,761.7v-10.73c0-1.39-.43-2.54-1.3-3.45-.87-.9-2-1.36-3.39-1.36-.93,0-1.76.21-2.48.62-.72.41-1.29.98-1.7,1.7-.41.72-.62,1.55-.62,2.48l-1.43-.81c0-1.4.31-2.63.93-3.72.62-1.08,1.49-1.94,2.6-2.58,1.11-.63,2.36-.95,3.76-.95s2.63.35,3.7,1.05c1.07.7,1.92,1.61,2.54,2.73.62,1.12.93,2.32.93,3.58v11.43h-3.53Z"/>
            <path class="cls-5" d="M1453.56,762.08c-1.86,0-3.52-.42-4.98-1.26-1.46-.84-2.62-1.98-3.47-3.43-.85-1.45-1.28-3.09-1.28-4.92s.42-3.43,1.26-4.88c.84-1.45,1.98-2.59,3.41-3.43,1.43-.84,3.04-1.26,4.82-1.26,1.68,0,3.18.39,4.49,1.16,1.32.77,2.34,1.85,3.08,3.22.74,1.37,1.1,2.93,1.1,4.69,0,.26-.01.54-.04.83-.03.3-.08.63-.16.99h-15.54v-2.91h13.68l-1.28,1.12c0-1.24-.22-2.29-.66-3.16-.44-.87-1.06-1.54-1.86-2.01-.8-.48-1.77-.72-2.91-.72s-2.23.26-3.14.77c-.9.52-1.6,1.24-2.09,2.17-.49.93-.74,2.03-.74,3.29s.26,2.42.77,3.39c.52.97,1.25,1.72,2.21,2.25.96.53,2.05.79,3.29.79,1.03,0,1.98-.18,2.85-.54.86-.36,1.61-.9,2.23-1.63l2.25,2.29c-.9,1.03-1.99,1.82-3.25,2.36-1.27.54-2.62.81-4.07.81Z"/>
            <path class="cls-5" d="M1474.21,762.08c-1.81,0-3.44-.43-4.9-1.28-1.46-.85-2.61-2.01-3.45-3.47-.84-1.46-1.26-3.08-1.26-4.86s.42-3.43,1.26-4.88c.84-1.45,1.99-2.59,3.45-3.43,1.46-.84,3.09-1.26,4.9-1.26,1.42,0,2.74.26,3.95.79,1.21.53,2.26,1.3,3.14,2.31l-2.32,2.32c-.57-.67-1.27-1.18-2.09-1.53-.83-.35-1.72-.52-2.67-.52-1.16,0-2.2.27-3.1.79-.9.53-1.61,1.26-2.13,2.19-.52.93-.77,2-.77,3.22s.26,2.29.77,3.22c.52.93,1.23,1.67,2.13,2.21.9.54,1.94.81,3.1.81.98,0,1.88-.17,2.69-.52.81-.35,1.52-.86,2.11-1.53l2.29,2.32c-.85.98-1.89,1.74-3.12,2.29-1.23.54-2.55.81-3.97.81Z"/>
            <path class="cls-5" d="M1482.81,746.47v-3.18h12.55v3.18h-12.55ZM1487.35,761.7v-26.11h3.49v26.11h-3.49Z"/>
            <path class="cls-5" d="M1506.02,762.08c-1.7,0-3.23-.42-4.59-1.26-1.36-.84-2.43-1.98-3.22-3.43-.79-1.45-1.18-3.07-1.18-4.88s.39-3.43,1.18-4.88c.79-1.45,1.86-2.6,3.22-3.45,1.36-.85,2.89-1.28,4.59-1.28,1.39,0,2.64.29,3.74.87,1.1.58,1.98,1.38,2.65,2.4.67,1.02,1.05,2.2,1.12,3.54v5.54c-.08,1.32-.45,2.49-1.1,3.53-.66,1.03-1.54,1.84-2.65,2.42-1.11.58-2.36.87-3.76.87ZM1506.6,758.79c1.73,0,3.12-.59,4.18-1.76s1.59-2.68,1.59-4.51c0-1.24-.25-2.34-.74-3.29-.49-.96-1.17-1.7-2.03-2.23-.87-.53-1.88-.79-3.04-.79s-2.19.27-3.08.81c-.89.54-1.59,1.29-2.09,2.23-.5.94-.76,2.02-.76,3.23s.25,2.33.76,3.27c.5.94,1.21,1.69,2.11,2.23.9.54,1.94.81,3.1.81ZM1512.14,761.7v-4.96l.66-4.49-.66-4.46v-4.49h3.53v18.4h-3.53Z"/>
            <path class="cls-5" d="M1605.73,762.08c-1.94,0-3.73-.36-5.39-1.07-1.65-.71-3.09-1.7-4.32-2.96-1.23-1.27-2.18-2.74-2.85-4.42-.67-1.68-1.01-3.47-1.01-5.38s.34-3.74,1.01-5.42c.67-1.68,1.61-3.14,2.83-4.4,1.21-1.25,2.65-2.23,4.3-2.94,1.65-.71,3.43-1.07,5.35-1.07,2.14,0,4.02.36,5.62,1.08,1.6.72,3.02,1.7,4.26,2.94l-2.52,2.52c-.85-.96-1.9-1.7-3.14-2.25-1.24-.54-2.65-.81-4.22-.81-1.39,0-2.69.25-3.87.76-1.19.5-2.22,1.22-3.1,2.15-.88.93-1.56,2.03-2.03,3.29-.48,1.27-.72,2.65-.72,4.15s.24,2.88.72,4.14c.48,1.27,1.16,2.36,2.03,3.29.88.93,1.91,1.65,3.1,2.15,1.19.5,2.49.76,3.91.76,1.68,0,3.14-.28,4.38-.83,1.24-.56,2.29-1.31,3.14-2.27l2.52,2.52c-1.24,1.27-2.69,2.26-4.36,2.98-1.67.72-3.54,1.08-5.64,1.08Z"/>
            <path class="cls-5" d="M1619.56,761.7v-18.4h3.49v18.4h-3.49ZM1623.05,751.24l-1.32-.62c0-2.35.54-4.22,1.63-5.62,1.08-1.4,2.65-2.09,4.69-2.09.93,0,1.77.16,2.52.48.75.32,1.45.86,2.09,1.61l-2.29,2.36c-.39-.41-.81-.71-1.28-.89-.46-.18-1.01-.27-1.63-.27-1.29,0-2.35.41-3.18,1.24-.83.83-1.24,2.09-1.24,3.8Z"/>
            <path class="cls-5" d="M1643.04,762.08c-1.86,0-3.52-.42-4.98-1.26-1.46-.84-2.62-1.98-3.47-3.43-.85-1.45-1.28-3.09-1.28-4.92s.42-3.43,1.26-4.88c.84-1.45,1.98-2.59,3.41-3.43,1.43-.84,3.04-1.26,4.82-1.26,1.68,0,3.18.39,4.49,1.16,1.32.77,2.34,1.85,3.08,3.22.74,1.37,1.1,2.93,1.1,4.69,0,.26-.01.54-.04.83-.03.3-.08.63-.16.99h-15.53v-2.91h13.67l-1.28,1.12c0-1.24-.22-2.29-.66-3.16s-1.06-1.54-1.86-2.01c-.8-.48-1.77-.72-2.9-.72s-2.23.26-3.14.77c-.91.52-1.6,1.24-2.09,2.17-.49.93-.74,2.03-.74,3.29s.26,2.42.77,3.39c.52.97,1.25,1.72,2.21,2.25s2.05.79,3.29.79c1.03,0,1.98-.18,2.85-.54.87-.36,1.61-.9,2.23-1.63l2.25,2.29c-.9,1.03-1.99,1.82-3.25,2.36-1.26.54-2.62.81-4.07.81Z"/>
            <path class="cls-5" d="M1663.69,762.08c-1.81,0-3.44-.43-4.9-1.28-1.46-.85-2.61-2.01-3.45-3.47-.84-1.46-1.26-3.08-1.26-4.86s.42-3.43,1.26-4.88c.84-1.45,1.99-2.59,3.45-3.43,1.46-.84,3.09-1.26,4.9-1.26,1.42,0,2.74.26,3.95.79,1.21.53,2.26,1.3,3.14,2.31l-2.32,2.32c-.57-.67-1.27-1.18-2.09-1.53-.83-.35-1.72-.52-2.67-.52-1.16,0-2.2.27-3.1.79-.9.53-1.61,1.26-2.13,2.19-.52.93-.77,2-.77,3.22s.26,2.29.77,3.22c.52.93,1.23,1.67,2.13,2.21s1.94.81,3.1.81c.98,0,1.88-.17,2.69-.52.81-.35,1.52-.86,2.11-1.53l2.29,2.32c-.85.98-1.89,1.74-3.12,2.29-1.23.54-2.55.81-3.97.81Z"/>
            <path class="cls-5" d="M1682.36,762.08c-1.86,0-3.52-.42-4.98-1.26-1.46-.84-2.62-1.98-3.47-3.43-.85-1.45-1.28-3.09-1.28-4.92s.42-3.43,1.26-4.88c.84-1.45,1.98-2.59,3.41-3.43,1.43-.84,3.04-1.26,4.82-1.26,1.68,0,3.18.39,4.49,1.16,1.32.77,2.34,1.85,3.08,3.22.74,1.37,1.1,2.93,1.1,4.69,0,.26-.01.54-.04.83-.03.3-.08.63-.16.99h-15.54v-2.91h13.68l-1.28,1.12c0-1.24-.22-2.29-.66-3.16-.44-.87-1.06-1.54-1.86-2.01-.8-.48-1.77-.72-2.91-.72s-2.23.26-3.14.77c-.9.52-1.6,1.24-2.09,2.17-.49.93-.74,2.03-.74,3.29s.26,2.42.77,3.39c.52.97,1.25,1.72,2.21,2.25.96.53,2.05.79,3.29.79,1.03,0,1.98-.18,2.85-.54.86-.36,1.61-.9,2.23-1.63l2.25,2.29c-.9,1.03-1.99,1.82-3.25,2.36-1.27.54-2.62.81-4.07.81Z"/>
            <path class="cls-5" d="M1767.4,761.7v-26.89h3.64v26.89h-3.64Z"/>
            <path class="cls-5" d="M1776.77,761.7v-18.4h3.49v18.4h-3.49ZM1789.21,761.7v-11.12c0-1.37-.42-2.45-1.26-3.23-.84-.79-1.89-1.18-3.16-1.18-.85,0-1.61.18-2.29.54s-1.21.87-1.63,1.51c-.41.65-.62,1.43-.62,2.36l-1.43-.74c0-1.39.3-2.61.91-3.64.61-1.03,1.44-1.84,2.5-2.42,1.06-.58,2.25-.87,3.56-.87s2.46.28,3.51.85c1.05.57,1.87,1.37,2.48,2.4.61,1.03.91,2.26.91,3.68v11.85h-3.49ZM1801.64,761.7v-11.12c0-1.37-.42-2.45-1.26-3.23-.84-.79-1.88-1.18-3.12-1.18-.85,0-1.62.18-2.31.54-.68.36-1.23.87-1.65,1.51-.41.65-.62,1.43-.62,2.36l-1.98-.74c.08-1.42.46-2.64,1.14-3.66.68-1.02,1.57-1.82,2.65-2.4,1.08-.58,2.27-.87,3.56-.87s2.54.28,3.6.85c1.06.57,1.9,1.37,2.54,2.4.63,1.03.95,2.27.95,3.72v11.82h-3.53Z"/>
            <path class="cls-5" d="M1809.89,769.41v-26.11h3.49v4.84l-.66,4.46.66,4.49v12.32h-3.49ZM1819.58,762.08c-1.39,0-2.65-.29-3.78-.87-1.12-.58-2.02-1.39-2.69-2.42-.67-1.03-1.05-2.21-1.12-3.53v-5.54c.08-1.34.46-2.52,1.14-3.54.68-1.02,1.59-1.82,2.71-2.4,1.12-.58,2.37-.87,3.74-.87,1.68,0,3.2.43,4.55,1.28,1.36.85,2.42,2,3.2,3.45.78,1.45,1.16,3.07,1.16,4.88s-.39,3.44-1.16,4.88c-.77,1.45-1.84,2.59-3.2,3.43-1.36.84-2.87,1.26-4.55,1.26ZM1819,758.79c1.16,0,2.18-.27,3.06-.81.88-.54,1.57-1.28,2.07-2.23.5-.94.76-2.03.76-3.27s-.25-2.29-.76-3.23c-.5-.94-1.19-1.69-2.07-2.23-.88-.54-1.9-.81-3.06-.81s-2.14.27-3.02.81c-.88.54-1.56,1.29-2.05,2.23-.49.94-.74,2.03-.74,3.27s.24,2.29.72,3.23c.48.94,1.16,1.69,2.05,2.23.89.54,1.9.81,3.04.81Z"/>
            <path class="cls-5" d="M1840.27,762.08c-1.7,0-3.23-.42-4.59-1.26-1.36-.84-2.43-1.98-3.22-3.43s-1.18-3.07-1.18-4.88.39-3.43,1.18-4.88c.79-1.45,1.86-2.6,3.22-3.45,1.36-.85,2.89-1.28,4.59-1.28,1.4,0,2.64.29,3.74.87,1.1.58,1.98,1.38,2.65,2.4.67,1.02,1.05,2.2,1.12,3.54v5.54c-.08,1.32-.45,2.49-1.1,3.53-.66,1.03-1.54,1.84-2.65,2.42-1.11.58-2.36.87-3.76.87ZM1840.85,758.79c1.73,0,3.13-.59,4.18-1.76,1.06-1.18,1.59-2.68,1.59-4.51,0-1.24-.25-2.34-.74-3.29-.49-.96-1.17-1.7-2.03-2.23-.87-.53-1.88-.79-3.04-.79s-2.19.27-3.08.81c-.89.54-1.59,1.29-2.09,2.23-.5.94-.76,2.02-.76,3.23s.25,2.33.76,3.27c.5.94,1.21,1.69,2.11,2.23.9.54,1.94.81,3.1.81ZM1846.39,761.7v-4.96l.66-4.49-.66-4.46v-4.49h3.53v18.4h-3.53Z"/>
            <path class="cls-5" d="M1863.39,762.08c-1.81,0-3.44-.43-4.9-1.28-1.46-.85-2.61-2.01-3.45-3.47-.84-1.46-1.26-3.08-1.26-4.86s.42-3.43,1.26-4.88c.84-1.45,1.99-2.59,3.45-3.43,1.46-.84,3.09-1.26,4.9-1.26,1.42,0,2.74.26,3.95.79,1.21.53,2.26,1.3,3.14,2.31l-2.32,2.32c-.57-.67-1.27-1.18-2.09-1.53-.83-.35-1.72-.52-2.67-.52-1.16,0-2.2.27-3.1.79-.9.53-1.61,1.26-2.13,2.19-.52.93-.77,2-.77,3.22s.26,2.29.77,3.22c.52.93,1.23,1.67,2.13,2.21.9.54,1.94.81,3.1.81.98,0,1.88-.17,2.69-.52.81-.35,1.52-.86,2.11-1.53l2.29,2.32c-.85.98-1.89,1.74-3.12,2.29-1.23.54-2.55.81-3.97.81Z"/>
            <path class="cls-5" d="M1871.99,746.47v-3.18h12.55v3.18h-12.55ZM1876.53,761.7v-26.11h3.49v26.11h-3.49Z"/>
            <path class="cls-5" d="M1895.2,762.08c-1.7,0-3.23-.42-4.59-1.26-1.36-.84-2.43-1.98-3.22-3.43-.79-1.45-1.18-3.07-1.18-4.88s.39-3.43,1.18-4.88c.79-1.45,1.86-2.6,3.22-3.45,1.36-.85,2.89-1.28,4.59-1.28,1.4,0,2.64.29,3.74.87,1.1.58,1.98,1.38,2.65,2.4.67,1.02,1.05,2.2,1.12,3.54v5.54c-.08,1.32-.45,2.49-1.1,3.53-.66,1.03-1.54,1.84-2.65,2.42-1.11.58-2.36.87-3.76.87ZM1895.78,758.79c1.73,0,3.13-.59,4.18-1.76s1.59-2.68,1.59-4.51c0-1.24-.25-2.34-.74-3.29-.49-.96-1.17-1.7-2.03-2.23-.87-.53-1.88-.79-3.04-.79s-2.19.27-3.08.81c-.89.54-1.59,1.29-2.09,2.23-.5.94-.76,2.02-.76,3.23s.25,2.33.76,3.27c.5.94,1.21,1.69,2.11,2.23.9.54,1.94.81,3.1.81ZM1901.32,761.7v-4.96l.66-4.49-.66-4.46v-4.49h3.53v18.4h-3.53Z"/>
          </g>
          <circle class="cls-5" cx="1554.85" cy="751.92" r="6.31"/>
          <circle class="cls-5" cx="1726.58" cy="751.92" r="6.31"/>
        </g>
        <path class="cls-2" d="M1666.79,370.98v60.39c-33.22,0-60.14-27.04-60.14-60.39s26.93-60.39,60.14-60.39v60.39Z"/>
      </g>
      <g>
        <g>
          <path class="cls-2" d="M422.54,531.86c-4.43-2.25-9.17-3.95-14.25-5.11-5.08-1.16-9.86-2.17-14.36-3.05-4.5-.87-8.16-2.07-10.99-3.59-2.83-1.52-4.24-3.73-4.24-6.64,0-1.88.58-3.51,1.74-4.89,1.16-1.38,2.75-2.46,4.79-3.26,2.03-.8,4.28-1.2,6.74-1.2,4.35,0,8.37.95,12.07,2.83,3.7,1.89,6.34,4.79,7.94,8.7l22.84-12.83c-2.18-4.2-5.19-8.05-9.03-11.53-3.84-3.48-8.59-6.31-14.25-8.48-5.66-2.18-12.4-3.26-20.23-3.26-8.85,0-16.53,1.52-23.06,4.57-6.53,3.05-11.57,7.18-15.12,12.4-3.56,5.22-5.33,11.09-5.33,17.62,0,6.96,1.41,12.51,4.24,16.64,2.83,4.13,6.49,7.29,10.99,9.46,4.49,2.18,9.28,3.84,14.36,5,5.07,1.16,9.82,2.18,14.25,3.05,4.42.87,8.08,2,10.99,3.37,2.9,1.38,4.35,3.52,4.35,6.42,0,2.17-.69,4.02-2.07,5.55-1.38,1.52-3.26,2.68-5.66,3.48-2.39.8-5.26,1.2-8.59,1.2-5.37,0-9.86-.98-13.49-2.94-3.63-1.96-6.67-5.11-9.14-9.46l-22.84,12.84c4.49,7.98,10.62,14.03,18.38,18.16,7.76,4.13,17.29,6.2,28.61,6.2,8.12,0,15.66-1.49,22.62-4.46,6.96-2.97,12.54-7.1,16.75-12.4,4.2-5.29,6.31-11.56,6.31-18.82,0-6.67-1.45-12.04-4.35-16.1-2.9-4.06-6.56-7.21-10.99-9.46Z"/>
          <rect class="cls-6" x="447.3" y="482.37" width="30.89" height="107.68"/>
          <path class="cls-2" d="M575.17,487.05c-8.34-5.15-18.82-7.72-31.44-7.72s-23.06,2.58-31.33,7.72c-8.27,5.15-14.47,12.04-18.6,20.67-4.13,8.63-6.2,18.17-6.2,28.61v53.73h30.89v-50.03c0-5.66.87-10.77,2.61-15.34,1.74-4.57,4.49-8.27,8.27-11.09,3.77-2.83,8.56-4.24,14.36-4.24s10.77,1.41,14.47,4.24c3.7,2.83,6.49,6.56,8.37,11.2,1.88,4.64,2.83,9.72,2.83,15.23v50.03h30.89v-53.73c0-10.58-2.1-20.16-6.31-28.72-4.21-8.55-10.48-15.41-18.82-20.56Z"/>
          <path class="cls-2" d="M692.06,550.02c-2.39,4.21-5.66,7.58-9.79,10.12-4.13,2.54-8.89,3.81-14.25,3.81s-9.9-1.27-14.03-3.81c-4.13-2.54-7.4-5.91-9.79-10.12-2.39-4.2-3.59-8.84-3.59-13.92s1.2-9.71,3.59-13.92c2.39-4.2,5.66-7.58,9.79-10.12,4.13-2.54,8.81-3.81,14.03-3.81s10.12,1.27,14.25,3.81c4.13,2.54,7.4,5.91,9.79,10.12,2.39,4.21,3.59,8.85,3.59,13.92s-1.2,9.72-3.59,13.92h0ZM697.94,486.83c-8.78-5.15-18.75-7.72-29.91-7.72s-20.74,2.58-29.58,7.72c-8.85,5.15-15.85,12-20.99,20.56-5.15,8.56-7.72,18.06-7.72,28.5s2.57,19.98,7.72,28.61c5.15,8.63,12.11,15.52,20.88,20.67,8.77,5.15,18.67,7.72,29.69,7.72s20.96-2.58,29.8-7.72c8.84-5.15,15.84-12.04,20.99-20.67,5.15-8.63,7.72-18.17,7.72-28.61s-2.58-19.76-7.72-28.39c-5.15-8.63-12.11-15.52-20.88-20.67Z"/>
          <path class="cls-2" d="M782.05,562.1c0-.1.07-.12.2-.09-.02.06-.08.09-.2.09h0ZM810.33,480.96l-28.17,80.21-28.17-80.21h-32.85l32.85,89.84c2.46,6.96,6.13,12.18,10.99,15.66,4.86,3.48,10.55,5.22,17.08,5.22s12.32-1.74,16.97-5.22c4.64-3.48,8.27-8.7,10.88-15.66l33.28-89.84h-32.85Z"/>
          <path class="cls-2" d="M925.33,548.61c-2.39,4.21-5.66,7.58-9.79,10.12-4.13,2.54-8.89,3.81-14.25,3.81s-9.9-1.27-14.03-3.81c-4.13-2.54-7.4-5.91-9.79-10.12-2.39-4.2-3.59-8.84-3.59-13.92s1.2-9.71,3.59-13.92c2.39-4.2,5.66-7.58,9.79-10.12,4.13-2.54,8.81-3.81,14.03-3.81s10.11,1.27,14.25,3.81c4.13,2.54,7.4,5.91,9.79,10.12,2.39,4.21,3.59,8.85,3.59,13.92s-1.2,9.72-3.59,13.92h0ZM952.19,505.43c-5.08-8.48-12.04-15.23-20.88-20.23-8.85-5-18.86-7.51-30.02-7.51s-20.92,2.58-29.7,7.72c-8.78,5.15-15.74,12.04-20.88,20.67-5.15,8.63-7.72,18.09-7.72,28.39s2.28,19.98,6.85,28.61c4.57,8.63,10.84,15.52,18.82,20.67,7.97,5.15,17.19,7.72,27.63,7.72,8.99,0,16.68-1.92,23.06-5.77,4.34-2.61,8.03-5.92,11.09-9.87v12.81h29.37v-54.17c0-10.88-2.54-20.56-7.61-29.04Z"/>
        </g>
        <path class="cls-2" d="M176.85,479.1v56.89c-31.29,0-56.65-25.47-56.65-56.89s25.36-56.89,56.65-56.89v56.89Z"/>
        <path class="cls-4" d="M290.15,479.1h-56.65c0-31.42,25.36-56.89,56.65-56.89v56.89Z"/>
        <path class="cls-3" d="M176.85,592.88v-56.89c31.29,0,56.65,25.47,56.65,56.89s-25.36,56.89-56.65,56.89v-56.89Z"/>
        <path class="cls-2" d="M233.5,592.88v-56.89c31.29,0,56.65,25.47,56.65,56.89s-25.36,56.89-56.65,56.89v-56.89Z"/>
        <path class="cls-1" d="M120.19,592.88h56.65c0,31.42-25.36,56.89-56.65,56.89v-56.89Z"/>
        <g>
          <g>
            <path class="cls-5" d="M380.83,649.87c-2.09,0-4.04-.38-5.82-1.15-1.79-.77-3.34-1.83-4.67-3.2-1.33-1.37-2.35-2.96-3.08-4.77-.73-1.81-1.09-3.75-1.09-5.82s.36-4.05,1.09-5.86c.73-1.81,1.74-3.4,3.06-4.75,1.31-1.35,2.86-2.41,4.65-3.18,1.79-.77,3.71-1.15,5.78-1.15,2.32,0,4.34.39,6.07,1.17,1.73.78,3.27,1.84,4.61,3.18l-2.72,2.72c-.92-1.03-2.05-1.84-3.39-2.43-1.34-.59-2.86-.88-4.57-.88-1.51,0-2.9.27-4.19.82-1.28.54-2.4,1.32-3.35,2.32-.95,1.01-1.68,2.19-2.2,3.56-.52,1.37-.78,2.86-.78,4.48s.26,3.11.78,4.48c.52,1.37,1.25,2.56,2.2,3.56.95,1,2.07,1.78,3.35,2.32,1.28.54,2.69.82,4.23.82,1.81,0,3.39-.3,4.73-.9,1.34-.6,2.47-1.42,3.39-2.45l2.72,2.72c-1.34,1.37-2.91,2.44-4.71,3.22-1.8.78-3.83,1.17-6.09,1.17Z"/>
            <path class="cls-5" d="M404.16,649.87c-1.93,0-3.67-.46-5.24-1.38-1.56-.92-2.81-2.17-3.73-3.75-.92-1.58-1.38-3.34-1.38-5.3s.46-3.67,1.38-5.22c.92-1.55,2.16-2.78,3.73-3.71,1.56-.92,3.31-1.38,5.24-1.38s3.72.45,5.3,1.36c1.58.91,2.83,2.14,3.75,3.71.92,1.56,1.38,3.31,1.38,5.24s-.46,3.72-1.38,5.3c-.92,1.58-2.17,2.83-3.75,3.75-1.58.92-3.34,1.38-5.3,1.38ZM404.16,646.22c1.28,0,2.42-.29,3.39-.88.98-.59,1.74-1.39,2.3-2.41.56-1.02.84-2.18.84-3.5s-.29-2.43-.86-3.43c-.57-1.01-1.34-1.79-2.3-2.37-.96-.57-2.09-.86-3.37-.86s-2.33.29-3.31.86c-.98.57-1.75,1.36-2.3,2.37-.56,1.01-.84,2.15-.84,3.43s.28,2.48.84,3.5c.56,1.02,1.33,1.82,2.3,2.41.98.59,2.08.88,3.31.88Z"/>
            <path class="cls-5" d="M418.77,649.45v-19.9h3.77v19.9h-3.77ZM432.8,649.45v-11.6c0-1.51-.47-2.75-1.4-3.73-.94-.98-2.16-1.47-3.67-1.47-1,0-1.9.22-2.68.67-.78.45-1.4,1.06-1.84,1.84-.45.78-.67,1.68-.67,2.68l-1.55-.88c0-1.51.33-2.85,1.01-4.02.67-1.17,1.61-2.1,2.81-2.78,1.2-.68,2.56-1.03,4.06-1.03s2.84.38,4,1.13c1.16.75,2.07,1.74,2.74,2.95.67,1.21,1,2.51,1,3.87v12.36h-3.81Z"/>
            <path class="cls-5" d="M450.94,649.87c-2.01,0-3.81-.45-5.38-1.36-1.58-.91-2.83-2.14-3.75-3.71-.92-1.56-1.38-3.34-1.38-5.32s.45-3.71,1.36-5.28c.91-1.56,2.14-2.8,3.69-3.71,1.55-.91,3.29-1.36,5.21-1.36,1.81,0,3.43.42,4.86,1.26,1.42.84,2.53,2,3.33,3.48.8,1.48,1.19,3.17,1.19,5.07,0,.28-.01.58-.04.9-.03.32-.08.68-.17,1.07h-16.8v-3.14h14.79l-1.38,1.21c0-1.34-.24-2.48-.71-3.41-.47-.94-1.14-1.66-2.01-2.18-.87-.52-1.91-.77-3.14-.77s-2.42.28-3.39.84c-.98.56-1.73,1.34-2.26,2.35-.53,1.01-.8,2.19-.8,3.56s.28,2.62.84,3.67c.56,1.05,1.35,1.86,2.39,2.43,1.03.57,2.22.86,3.56.86,1.12,0,2.14-.19,3.08-.59.94-.39,1.74-.98,2.41-1.76l2.43,2.47c-.98,1.12-2.15,1.97-3.52,2.56-1.37.59-2.83.88-4.4.88Z"/>
            <path class="cls-5" d="M473.26,649.87c-1.95,0-3.72-.46-5.3-1.38-1.58-.92-2.82-2.17-3.73-3.75-.91-1.58-1.36-3.33-1.36-5.26s.45-3.71,1.36-5.28c.91-1.56,2.15-2.8,3.73-3.71,1.58-.91,3.34-1.36,5.3-1.36,1.54,0,2.96.29,4.27.86,1.31.57,2.44,1.4,3.39,2.49l-2.51,2.51c-.61-.73-1.37-1.28-2.26-1.65-.89-.38-1.86-.57-2.89-.57-1.26,0-2.37.29-3.35.86-.98.57-1.75,1.36-2.3,2.37-.56,1.01-.84,2.16-.84,3.48s.28,2.47.84,3.48c.56,1,1.33,1.8,2.3,2.39.98.59,2.09.88,3.35.88,1.06,0,2.03-.19,2.91-.56.88-.38,1.64-.93,2.28-1.65l2.47,2.51c-.92,1.06-2.05,1.88-3.37,2.47-1.33.59-2.76.88-4.29.88Z"/>
            <path class="cls-5" d="M482.56,632.99v-3.43h13.57v3.43h-13.57ZM487.46,649.45v-28.23h3.77v28.23h-3.77Z"/>
            <path class="cls-5" d="M507.65,649.87c-1.84,0-3.5-.45-4.96-1.36-1.47-.91-2.63-2.14-3.48-3.71-.85-1.56-1.28-3.32-1.28-5.28s.43-3.71,1.28-5.28c.85-1.56,2.01-2.81,3.48-3.73,1.47-.92,3.12-1.38,4.96-1.38,1.51,0,2.85.31,4.04.94,1.19.63,2.14,1.49,2.87,2.6.73,1.1,1.13,2.38,1.21,3.83v5.99c-.08,1.42-.48,2.7-1.19,3.81-.71,1.12-1.67,1.99-2.87,2.62-1.2.63-2.56.94-4.06.94ZM508.28,646.31c1.87,0,3.38-.63,4.52-1.91,1.14-1.27,1.72-2.9,1.72-4.88,0-1.34-.27-2.53-.8-3.56-.53-1.03-1.26-1.84-2.2-2.41-.94-.57-2.03-.86-3.29-.86s-2.37.29-3.33.88c-.96.59-1.72,1.39-2.26,2.41-.54,1.02-.82,2.18-.82,3.5s.27,2.52.82,3.54c.54,1.02,1.31,1.82,2.28,2.41.98.59,2.09.88,3.35.88ZM514.27,649.45v-5.36l.71-4.86-.71-4.82v-4.86h3.81v19.9h-3.81Z"/>
            <path class="cls-5" d="M615.46,649.87c-2.09,0-4.04-.38-5.82-1.15-1.79-.77-3.34-1.83-4.67-3.2-1.33-1.37-2.35-2.96-3.08-4.77-.73-1.81-1.09-3.75-1.09-5.82s.36-4.05,1.09-5.86c.73-1.81,1.74-3.4,3.06-4.75,1.31-1.35,2.86-2.41,4.65-3.18,1.79-.77,3.71-1.15,5.78-1.15,2.32,0,4.34.39,6.07,1.17,1.73.78,3.27,1.84,4.61,3.18l-2.72,2.72c-.92-1.03-2.05-1.84-3.39-2.43-1.34-.59-2.86-.88-4.57-.88-1.51,0-2.9.27-4.19.82-1.28.54-2.4,1.32-3.35,2.32-.95,1.01-1.68,2.19-2.2,3.56-.52,1.37-.78,2.86-.78,4.48s.26,3.11.78,4.48c.52,1.37,1.25,2.56,2.2,3.56.95,1,2.07,1.78,3.35,2.32,1.28.54,2.69.82,4.23.82,1.81,0,3.39-.3,4.73-.9,1.34-.6,2.47-1.42,3.39-2.45l2.72,2.72c-1.34,1.37-2.91,2.44-4.71,3.22-1.8.78-3.83,1.17-6.09,1.17Z"/>
            <path class="cls-5" d="M630.41,649.45v-19.9h3.77v19.9h-3.77ZM634.18,638.14l-1.42-.67c0-2.54.59-4.57,1.76-6.07,1.17-1.51,2.86-2.26,5.07-2.26,1.01,0,1.91.17,2.72.52.81.35,1.56.93,2.26,1.74l-2.47,2.55c-.42-.45-.88-.77-1.38-.96-.5-.19-1.09-.29-1.76-.29-1.4,0-2.54.45-3.43,1.34-.89.89-1.34,2.26-1.34,4.1Z"/>
            <path class="cls-5" d="M655.79,649.87c-2.01,0-3.8-.45-5.38-1.36-1.58-.91-2.83-2.14-3.75-3.71-.92-1.56-1.38-3.34-1.38-5.32s.45-3.71,1.36-5.28c.91-1.56,2.14-2.8,3.68-3.71,1.55-.91,3.29-1.36,5.22-1.36,1.81,0,3.43.42,4.86,1.26,1.42.84,2.53,2,3.33,3.48.8,1.48,1.19,3.17,1.19,5.07,0,.28-.01.58-.04.9-.03.32-.09.68-.17,1.07h-16.79v-3.14h14.78l-1.38,1.21c0-1.34-.24-2.48-.71-3.41-.47-.94-1.14-1.66-2.01-2.18-.86-.52-1.91-.77-3.14-.77s-2.42.28-3.39.84c-.98.56-1.73,1.34-2.26,2.35s-.8,2.19-.8,3.56.28,2.62.84,3.67c.56,1.05,1.35,1.86,2.39,2.43s2.22.86,3.56.86c1.12,0,2.14-.19,3.08-.59.94-.39,1.74-.98,2.41-1.76l2.43,2.47c-.98,1.12-2.15,1.97-3.52,2.56-1.37.59-2.83.88-4.4.88Z"/>
            <path class="cls-5" d="M678.11,649.87c-1.95,0-3.72-.46-5.3-1.38-1.58-.92-2.82-2.17-3.73-3.75-.91-1.58-1.36-3.33-1.36-5.26s.45-3.71,1.36-5.28c.91-1.56,2.15-2.8,3.73-3.71,1.58-.91,3.34-1.36,5.3-1.36,1.54,0,2.96.29,4.27.86,1.31.57,2.44,1.4,3.39,2.49l-2.51,2.51c-.61-.73-1.37-1.28-2.26-1.65s-1.86-.57-2.89-.57c-1.26,0-2.37.29-3.35.86-.98.57-1.75,1.36-2.3,2.37-.56,1.01-.84,2.16-.84,3.48s.28,2.47.84,3.48c.56,1,1.33,1.8,2.3,2.39s2.09.88,3.35.88c1.06,0,2.03-.19,2.91-.56.88-.38,1.64-.93,2.28-1.65l2.47,2.51c-.92,1.06-2.05,1.88-3.37,2.47-1.33.59-2.76.88-4.29.88Z"/>
            <path class="cls-5" d="M698.3,649.87c-2.01,0-3.8-.45-5.38-1.36-1.58-.91-2.83-2.14-3.75-3.71-.92-1.56-1.38-3.34-1.38-5.32s.45-3.71,1.36-5.28c.91-1.56,2.14-2.8,3.69-3.71,1.55-.91,3.29-1.36,5.22-1.36,1.81,0,3.43.42,4.86,1.26,1.42.84,2.53,2,3.33,3.48.8,1.48,1.19,3.17,1.19,5.07,0,.28-.01.58-.04.9-.03.32-.08.68-.17,1.07h-16.8v-3.14h14.78l-1.38,1.21c0-1.34-.24-2.48-.71-3.41-.47-.94-1.14-1.66-2.01-2.18-.87-.52-1.91-.77-3.14-.77s-2.42.28-3.39.84c-.98.56-1.73,1.34-2.26,2.35-.53,1.01-.8,2.19-.8,3.56s.28,2.62.84,3.67c.56,1.05,1.35,1.86,2.39,2.43,1.03.57,2.22.86,3.56.86,1.12,0,2.14-.19,3.08-.59.93-.39,1.74-.98,2.41-1.76l2.43,2.47c-.98,1.12-2.15,1.97-3.52,2.56-1.37.59-2.83.88-4.4.88Z"/>
            <path class="cls-5" d="M790.23,649.45v-29.07h3.94v29.07h-3.94Z"/>
            <path class="cls-5" d="M800.37,649.45v-19.9h3.77v19.9h-3.77ZM813.81,649.45v-12.02c0-1.48-.45-2.65-1.36-3.5-.91-.85-2.05-1.28-3.41-1.28-.92,0-1.75.2-2.47.59-.73.39-1.31.94-1.76,1.63-.45.7-.67,1.55-.67,2.55l-1.55-.8c0-1.51.33-2.82.98-3.94.66-1.12,1.56-1.99,2.7-2.62,1.14-.63,2.43-.94,3.85-.94s2.66.31,3.79.92c1.13.61,2.02,1.48,2.68,2.6.66,1.12.98,2.44.98,3.98v12.82h-3.77ZM827.26,649.45v-12.02c0-1.48-.45-2.65-1.36-3.5-.91-.85-2.03-1.28-3.37-1.28-.92,0-1.75.2-2.49.59s-1.33.94-1.78,1.63c-.45.7-.67,1.55-.67,2.55l-2.14-.8c.08-1.54.5-2.85,1.24-3.96.74-1.1,1.7-1.97,2.87-2.6,1.17-.63,2.46-.94,3.85-.94s2.75.31,3.9.92c1.14.61,2.06,1.48,2.74,2.6.68,1.12,1.03,2.46,1.03,4.02v12.77h-3.81Z"/>
            <path class="cls-5" d="M836.18,657.78v-28.23h3.77v5.24l-.71,4.82.71,4.86v13.32h-3.77ZM846.65,649.87c-1.51,0-2.87-.31-4.08-.94-1.21-.63-2.18-1.5-2.91-2.62s-1.13-2.39-1.21-3.81v-5.99c.08-1.45.5-2.73,1.24-3.83.74-1.1,1.72-1.97,2.93-2.6,1.21-.63,2.56-.94,4.04-.94,1.81,0,3.46.46,4.92,1.38,1.47.92,2.62,2.16,3.45,3.73.84,1.56,1.26,3.32,1.26,5.28s-.42,3.71-1.26,5.28c-.84,1.56-1.99,2.8-3.45,3.71-1.47.91-3.11,1.36-4.92,1.36ZM846.02,646.31c1.26,0,2.36-.29,3.31-.88.95-.59,1.7-1.39,2.24-2.41.54-1.02.82-2.2.82-3.54s-.27-2.48-.82-3.5c-.54-1.02-1.29-1.82-2.24-2.41-.95-.59-2.05-.88-3.31-.88s-2.32.29-3.27.88c-.95.59-1.69,1.39-2.22,2.41-.53,1.02-.8,2.2-.8,3.54s.26,2.48.77,3.5c.52,1.02,1.26,1.82,2.22,2.41.96.59,2.06.88,3.29.88Z"/>
            <path class="cls-5" d="M869.02,649.87c-1.84,0-3.5-.45-4.96-1.36-1.47-.91-2.62-2.14-3.48-3.71s-1.28-3.32-1.28-5.28.43-3.71,1.28-5.28c.85-1.56,2.01-2.81,3.48-3.73,1.47-.92,3.12-1.38,4.96-1.38,1.51,0,2.85.31,4.04.94,1.19.63,2.14,1.49,2.87,2.6.73,1.1,1.13,2.38,1.21,3.83v5.99c-.08,1.42-.48,2.7-1.19,3.81-.71,1.12-1.67,1.99-2.87,2.62-1.2.63-2.55.94-4.06.94ZM869.65,646.31c1.87,0,3.38-.63,4.52-1.91s1.72-2.9,1.72-4.88c0-1.34-.27-2.53-.8-3.56-.53-1.03-1.26-1.84-2.2-2.41-.94-.57-2.03-.86-3.29-.86s-2.37.29-3.33.88c-.96.59-1.72,1.39-2.26,2.41-.54,1.02-.82,2.18-.82,3.5s.27,2.52.82,3.54c.54,1.02,1.31,1.82,2.28,2.41.98.59,2.09.88,3.35.88ZM875.64,649.45v-5.36l.71-4.86-.71-4.82v-4.86h3.81v19.9h-3.81Z"/>
            <path class="cls-5" d="M894.02,649.87c-1.95,0-3.72-.46-5.3-1.38-1.58-.92-2.82-2.17-3.73-3.75-.91-1.58-1.36-3.33-1.36-5.26s.45-3.71,1.36-5.28c.91-1.56,2.15-2.8,3.73-3.71,1.58-.91,3.34-1.36,5.3-1.36,1.54,0,2.96.29,4.27.86,1.31.57,2.44,1.4,3.39,2.49l-2.51,2.51c-.61-.73-1.37-1.28-2.26-1.65s-1.86-.57-2.89-.57c-1.26,0-2.37.29-3.35.86-.98.57-1.75,1.36-2.3,2.37-.56,1.01-.84,2.16-.84,3.48s.28,2.47.84,3.48c.56,1,1.33,1.8,2.3,2.39.98.59,2.09.88,3.35.88,1.06,0,2.03-.19,2.91-.56.88-.38,1.64-.93,2.28-1.65l2.47,2.51c-.92,1.06-2.05,1.88-3.37,2.47-1.33.59-2.76.88-4.29.88Z"/>
            <path class="cls-5" d="M903.32,632.99v-3.43h13.57v3.43h-13.57ZM908.22,649.45v-28.23h3.77v28.23h-3.77Z"/>
            <path class="cls-5" d="M928.41,649.87c-1.84,0-3.5-.45-4.96-1.36-1.47-.91-2.62-2.14-3.48-3.71-.85-1.56-1.28-3.32-1.28-5.28s.43-3.71,1.28-5.28c.85-1.56,2.01-2.81,3.48-3.73,1.47-.92,3.12-1.38,4.96-1.38,1.51,0,2.85.31,4.04.94,1.19.63,2.14,1.49,2.87,2.6.73,1.1,1.13,2.38,1.21,3.83v5.99c-.08,1.42-.48,2.7-1.19,3.81-.71,1.12-1.67,1.99-2.87,2.62-1.2.63-2.55.94-4.06.94ZM929.04,646.31c1.87,0,3.38-.63,4.52-1.91,1.14-1.27,1.72-2.9,1.72-4.88,0-1.34-.27-2.53-.8-3.56-.53-1.03-1.26-1.84-2.2-2.41-.94-.57-2.03-.86-3.29-.86s-2.37.29-3.33.88c-.96.59-1.72,1.39-2.26,2.41-.54,1.02-.82,2.18-.82,3.5s.27,2.52.82,3.54c.54,1.02,1.31,1.82,2.28,2.41.98.59,2.09.88,3.35.88ZM935.03,649.45v-5.36l.71-4.86-.71-4.82v-4.86h3.81v19.9h-3.81Z"/>
          </g>
          <circle class="cls-5" cx="560.44" cy="638.87" r="6.82"/>
          <circle class="cls-5" cx="746.1" cy="638.87" r="6.82"/>
        </g>
        <path class="cls-1" d="M233.5,479.1v56.89c-31.29,0-56.65-25.47-56.65-56.89s25.36-56.89,56.65-56.89v56.89Z"/>
      </g>
      <g>
        <path class="cls-2" d="M2679.84,419.18v120.82c-66.46,0-120.33-54.1-120.33-120.82s53.87-120.82,120.33-120.82v120.82Z"/>
        <path class="cls-4" d="M2920.49,419.17h-120.33c0-66.73,53.87-120.82,120.33-120.82v120.82Z"/>
        <path class="cls-3" d="M2679.84,660.82v-120.82c66.46,0,120.33,54.1,120.33,120.82s-53.87,120.82-120.33,120.82v-120.82Z"/>
        <path class="cls-2" d="M2800.16,660.82v-120.82c66.46,0,120.33,54.1,120.33,120.82s-53.87,120.82-120.33,120.82v-120.82Z"/>
        <path class="cls-1" d="M2559.51,660.83h120.33c0,66.73-53.87,120.82-120.33,120.82v-120.82Z"/>
        <path class="cls-1" d="M2800.16,419.18v120.82c-66.46,0-120.33-54.1-120.33-120.82s53.87-120.82,120.33-120.82v120.82Z"/>
      </g>
    </g>
  </g>
</svg>