<svg xmlns="http://www.w3.org/2000/svg" width="2293" height="1200" fill="none"><g clip-path="url(#a)"><path fill="#fff" d="M0 0h2293v1200H0z"/><g filter="url(#b)"><path fill="url(#c)" d="M-5.453 1227.52C-333.752 338.7-241.95-229.84 516.824-667.918 1275.6-1106 2553-572.985 2973.72 155.724 3224.15 589.482 1186.46 913.162 753.255 1437.71c-184.664 223.6 1180.725-86.58 1029.245 163.98-313.06 410.34-504.34 617.08-813.622 628.6-343.43 12.8-797.45-523.89-974.33-1002.77Z"/></g><g filter="url(#d)" opacity=".8"><path fill="#FDA599" d="M817.87 1830.36C489.676 1261.91 311.881 708.214 993.984 314.401 1676.09-79.412 2495.09 62.159 2823.29 630.607 3018.64 968.971 2381.56 827.17 1978 1274.25c-172.02 190.57 275.41 653.52-.68 812.91-323.2 186.61-470.15 525.67-739.58 550.93-299.183 28.04-247.188-508.64-419.87-807.73Z"/></g><g filter="url(#e)"><path fill="url(#f)" d="M-562.821 1475.55C-927.972 843.09-314.571-357.267 373.261-754.387 1061.09-1151.51 1499.16-470.375 1864.31 162.085c217.36 376.467 127.61 309.023 133.05 478.346 8.87 275.973-200.26 421.309-478.67 582.049-325.92 188.17-236.35 338.49-513.92 353.77-308.22 16.97-1375.463 232.07-1567.591-100.7Z"/></g><g filter="url(#g)"><path fill="#fff" d="M-284.244 802.333c-99.195-370.198 410.599-404.355 1164.229-606.289C1633.61-5.891 2217.42-35.726 2316.62 334.473c31.07 115.972 142.43 391.172 68.23 526.539-162.67 296.738-692.5 459.388-1210.04 598.058-414.036 110.95-1010.64 150.26-1299.217 74.29-236.687-62.3-115.139-564.213-159.837-731.027Z"/></g><circle cx="1146.45" cy="600.454" r="427.975" fill="url(#h)" stroke="url(#i)" stroke-width="9.867" transform="rotate(-90 1146.45 600.454)"/><circle cx="1146.46" cy="600.454" r="379.874" fill="url(#j)" stroke="url(#k)" stroke-width="9.867"/><circle cx="1146.45" cy="600.454" r="330.54" fill="url(#l)" stroke="url(#m)" stroke-width="9.867" transform="rotate(45 1146.45 600.454)"/><circle cx="1146.45" cy="600.454" r="281.206" fill="url(#n)" stroke="url(#o)" stroke-width="4.933" transform="rotate(90 1146.45 600.454)"/><circle cx="1146.45" cy="600.454" r="281.206" fill="url(#p)" transform="rotate(90 1146.45 600.454)"/><path fill="#F2F7F7" d="M1123.78 608.228c14.83 8.56 22.25 12.84 30.39 12.847 8.14.007 15.57-4.26 30.41-12.794l94.64-54.402a13.755 13.755 0 0 0 6.91-11.936c0-4.928-2.63-9.48-6.91-11.936l-94.67-54.421c-14.83-8.525-22.25-12.788-30.38-12.785-8.14.003-15.55 4.272-30.37 12.808l-81.39 46.869a91.372 91.372 0 0 0-46.396 78.887c-.002.326-.002.674-.002 1.37 0 .695 0 1.043.002 1.368a91.37 91.37 0 0 0 46.306 78.836l50.98 29.435c29.7 17.152 44.56 25.728 60.87 25.733 16.31.006 31.17-8.56 60.89-25.692l53.81-31.024c14.89-8.578 22.33-12.867 26.41-19.938 4.09-7.071 4.09-15.659 4.09-32.835v-33.18c0-4.765-2.58-9.156-6.75-11.475a13.124 13.124 0 0 0-12.93.088l-110.36 63.434c-7.4 4.256-11.1 6.384-15.16 6.385-4.07.002-7.77-2.124-15.18-6.376l-74.69-42.873c-3.74-2.148-5.61-3.222-7.11-3.416a7.622 7.622 0 0 0-8.03 4.675c-.57 1.403-.56 3.56-.53 7.874.01 3.176.02 4.764.32 6.224a15.158 15.158 0 0 0 4.9 8.43c1.12.981 2.49 1.775 5.25 3.363l79.85 46.089c7.43 4.286 11.14 6.429 15.22 6.43 4.07.001 7.79-2.14 15.22-6.421l97.87-56.422c2.54-1.462 3.81-2.194 4.76-1.644.95.549.95 2.014.95 4.943v15.049c0 4.295 0 6.442-1.02 8.209-1.02 1.768-2.88 2.84-6.6 4.985l-80.73 46.536c-14.86 8.568-22.29 12.851-30.45 12.848-8.16-.004-15.59-4.295-30.44-12.875l-75.53-43.632a51.86 51.86 0 0 1-26.17-44.8v-14.36a28.39 28.39 0 0 1 14.15-24.563 25.006 25.006 0 0 1 25.04-.023l62.56 36.108Z"/></g><defs><linearGradient id="c" x1="2046.47" x2="642.04" y1="1692.34" y2="-740.212" gradientUnits="userSpaceOnUse"><stop offset=".045" stop-color="#F4E28D"/><stop offset=".645" stop-color="#F4E28D"/><stop offset="1" stop-color="#5B6D72"/></linearGradient><linearGradient id="f" x1="1578.79" x2="1087.39" y1="1332.88" y2="532.477" gradientUnits="userSpaceOnUse"><stop stop-color="#D2F6FF"/><stop offset=".24" stop-color="#BBDDE5"/><stop offset=".734" stop-color="#BBDDE5"/><stop offset="1" stop-color="#BBDDE5"/></linearGradient><linearGradient id="i" x1="1146.45" x2="1146.45" y1="172.479" y2="1028.43" gradientUnits="userSpaceOnUse"><stop stop-color="#2F353F"/><stop offset=".74" stop-color="#14171C"/><stop offset=".983" stop-color="#fff"/></linearGradient><linearGradient id="k" x1="946.651" x2="1402.99" y1="331.747" y2="809.057" gradientUnits="userSpaceOnUse"><stop stop-color="#2F353F"/><stop offset="1" stop-color="#14171C"/></linearGradient><linearGradient id="m" x1="1394.19" x2="929.218" y1="374.75" y2="847.126" gradientUnits="userSpaceOnUse"><stop stop-color="#2F353F"/><stop offset="1" stop-color="#14171C"/></linearGradient><linearGradient id="n" x1="923.38" x2="1372.32" y1="771.891" y2="445.051" gradientUnits="userSpaceOnUse"><stop stop-color="#404650"/><stop offset="1" stop-color="#14171C"/></linearGradient><linearGradient id="o" x1="941.881" x2="1302.02" y1="681.856" y2="375.983" gradientUnits="userSpaceOnUse"><stop offset=".325" stop-color="#14171C"/><stop offset="1" stop-color="#fff"/></linearGradient><radialGradient id="h" cx="0" cy="0" r="1" gradientTransform="matrix(69.16118 597.68783 -688.09954 79.62314 1077.29 430.742)" gradientUnits="userSpaceOnUse"><stop stop-color="#14171C"/><stop offset=".355" stop-color="#F4E28D"/><stop offset=".604" stop-color="#BBDDE5"/><stop offset=".768" stop-color="#FDA599"/><stop offset="1" stop-color="#3F89A1"/></radialGradient><radialGradient id="j" cx="0" cy="0" r="1" gradientTransform="matrix(528.69066 501.52109 -577.38623 608.66574 879.382 371.873)" gradientUnits="userSpaceOnUse"><stop stop-color="#3F89A1"/><stop offset=".409" stop-color="#BBDDE5"/><stop offset="1" stop-color="#FDA599"/></radialGradient><radialGradient id="l" cx="0" cy="0" r="1" gradientTransform="matrix(75.09935 597.91313 -688.35948 86.45963 1071.353 333.085)" gradientUnits="userSpaceOnUse"><stop offset=".269" stop-color="#F4E28D"/><stop offset=".419" stop-color="#BBDDE5"/><stop offset=".92" stop-color="#FDA599"/></radialGradient><radialGradient id="p" cx="0" cy="0" r="1" gradientTransform="rotate(-36.055 1508.728 -1459.223) scale(277.657)" gradientUnits="userSpaceOnUse"><stop offset=".77" stop-color="#2F353F" stop-opacity="0"/><stop offset="1" stop-color="#14171C"/></radialGradient><filter id="b" width="3397.34" height="3274.19" x="-293.798" y="-935.094" color-interpolation-filters="sRGB" filterUnits="userSpaceOnUse"><feFlood flood-opacity="0" result="BackgroundImageFix"/><feBlend in="SourceGraphic" in2="BackgroundImageFix" result="shape"/><feGaussianBlur result="effect1_foregroundBlur_252_4740" stdDeviation="54.29"/></filter><filter id="d" width="2984.04" height="3199.2" x="201.327" y="-234.32" color-interpolation-filters="sRGB" filterUnits="userSpaceOnUse"><feFlood flood-opacity="0" result="BackgroundImageFix"/><feBlend in="SourceGraphic" in2="BackgroundImageFix" result="shape"/><feGaussianBlur result="effect1_foregroundBlur_252_4740" stdDeviation="162.869"/></filter><filter id="e" width="3204.19" height="3053.81" x="-932.401" y="-1132.98" color-interpolation-filters="sRGB" filterUnits="userSpaceOnUse"><feFlood flood-opacity="0" result="BackgroundImageFix"/><feBlend in="SourceGraphic" in2="BackgroundImageFix" result="shape"/><feGaussianBlur result="effect1_foregroundBlur_252_4740" stdDeviation="130.295"/></filter><filter id="g" width="3357.93" height="2175.36" x="-622.305" y="-276.988" color-interpolation-filters="sRGB" filterUnits="userSpaceOnUse"><feFlood flood-opacity="0" result="BackgroundImageFix"/><feBlend in="SourceGraphic" in2="BackgroundImageFix" result="shape"/><feGaussianBlur result="effect1_foregroundBlur_252_4740" stdDeviation="162.869"/></filter><clipPath id="a"><path fill="#fff" d="M0 0h2293v1200H0z"/></clipPath></defs></svg>